<svg width="20" height="20" viewBox="0 0 20 20" fill="none" xmlns="http://www.w3.org/2000/svg">
<g clip-path="url(#clip0_4580_9635)">
<path d="M9.99993 6.71753L9.55181 6.25691C8.49993 5.17566 6.57118 5.54878 5.87493 6.90816C5.54806 7.54753 5.47431 8.47066 6.07118 9.64878C6.64618 10.7832 7.84243 12.1419 9.99993 13.6219C12.1574 12.1419 13.3531 10.7832 13.9287 9.64878C14.5256 8.47003 14.4524 7.54753 14.1249 6.90816C13.4287 5.54878 11.4999 5.17503 10.4481 6.25628L9.99993 6.71753ZM9.99993 14.375C0.416809 8.04253 7.04931 3.10003 9.88993 5.71441C9.92743 5.74878 9.96431 5.78441 9.99993 5.82128C10.0352 5.78444 10.0719 5.74899 10.1099 5.71503C12.9499 3.09878 19.5831 8.04191 9.99993 14.375Z" fill="#3D3C3C"/>
</g>
<defs>
<clipPath id="clip0_4580_9635">
<rect width="10" height="10" fill="white" transform="translate(5 5)"/>
</clipPath>
</defs>
</svg>
