<svg width="20" height="20" viewBox="0 0 20 20" fill="none" xmlns="http://www.w3.org/2000/svg">
<g clip-path="url(#clip0_4580_9637)">
<path d="M6.93203 7.95215C6.89472 7.99402 6.8437 8.0212 6.78814 8.02882L5.75425 8.01882C5.62666 8.0222 5.50295 8.0634 5.3988 8.13718C5.29465 8.21097 5.21476 8.31401 5.16925 8.43326C5.16925 8.43326 5.12369 8.56271 5.07369 8.76104C5.02369 8.95937 5.00258 9.09493 5.00258 9.09493C4.96369 9.34548 5.10314 9.62271 5.32703 9.73993L6.23869 10.2177C6.28756 10.2547 6.32053 10.3089 6.33092 10.3694L6.38258 10.7222C6.38586 10.7779 6.36933 10.833 6.33591 10.8777L5.60147 11.5977C5.41758 11.7777 5.36925 12.0855 5.49591 12.3272L5.82869 12.8827C5.96925 13.0894 6.27369 13.1949 6.51258 13.1205L7.52591 12.8105C7.58091 12.8105 7.63591 12.8316 7.66703 12.8566L7.95314 13.0677C7.99478 13.1052 8.02191 13.1561 8.0298 13.2116L8.0198 14.2405C8.01758 14.4938 8.19536 14.7477 8.43425 14.831C8.43425 14.831 8.56369 14.8766 8.76203 14.9266C8.96036 14.9766 9.09591 14.9977 9.09591 14.9977C9.11036 14.9999 9.16814 15.0044 9.18258 15.0044C9.2965 15.003 9.40805 14.9716 9.50604 14.9135C9.60403 14.8554 9.68503 14.7725 9.74092 14.6733L10.2187 13.7616C10.2557 13.7127 10.3099 13.6798 10.3704 13.6694L10.7387 13.616C10.7942 13.616 10.8598 13.6449 10.8781 13.6638L11.5981 14.3983C11.7731 14.5772 12.0681 14.641 12.3276 14.5038L12.8826 14.171C13.0948 14.0266 13.1976 13.7322 13.1209 13.4872L12.8142 12.5055C12.8061 12.4445 12.8216 12.3826 12.8576 12.3327L13.0687 12.0466C13.106 12.0047 13.157 11.9775 13.2126 11.9699L14.2465 11.9799C14.3741 11.9765 14.4978 11.9353 14.6019 11.8616C14.7061 11.7878 14.786 11.6847 14.8315 11.5655C14.8315 11.5655 14.877 11.436 14.927 11.2377C14.977 11.0394 14.9981 10.9038 14.9981 10.9038C15.0146 10.7762 14.9925 10.6466 14.9347 10.5316C14.8769 10.4167 14.786 10.3217 14.6737 10.2588L13.762 9.78104C13.7132 9.74401 13.6802 9.6898 13.6698 9.62937L13.6187 9.27771C13.6154 9.22197 13.6319 9.16687 13.6654 9.12215L14.3998 8.40215C14.5837 8.22215 14.632 7.91437 14.5054 7.67271L14.1726 7.11715C14.032 6.91104 13.7281 6.80437 13.4887 6.87882L12.4748 7.18882C12.4241 7.18875 12.3747 7.1726 12.3337 7.14271L12.0476 6.93159C12.0059 6.89411 11.9788 6.84318 11.9709 6.78771L11.9809 5.75882C11.9788 5.63023 11.9381 5.50524 11.8643 5.39997C11.7904 5.29471 11.6867 5.214 11.5665 5.16826C11.5665 5.16826 11.437 5.12271 11.2387 5.07271C11.0404 5.02271 10.9048 5.00159 10.9048 5.00159C10.876 4.99873 10.8471 4.99669 10.8181 4.99548C10.7042 4.9969 10.5927 5.02824 10.4947 5.08635C10.3967 5.14447 10.3157 5.22731 10.2598 5.32659L9.78203 6.23826C9.745 6.28713 9.69078 6.32009 9.63036 6.33048L9.26203 6.38326C9.21172 6.38217 9.16299 6.36548 9.12258 6.33548L8.40258 5.60104C8.30848 5.50741 8.18671 5.44658 8.05532 5.42756C7.92394 5.40855 7.78993 5.43237 7.67314 5.49548L7.11758 5.82771C6.90536 5.97215 6.80258 6.26659 6.87925 6.51159L7.18591 7.49326C7.19411 7.55428 7.1786 7.61611 7.14258 7.66604L6.93203 7.95215ZM7.38758 8.26993L7.57814 8.01104C7.72703 7.83493 7.7848 7.54771 7.71592 7.32826L7.4098 6.34715C7.40703 6.33159 7.41925 6.29659 7.41647 6.29604L7.94314 5.98048L8.00591 5.98993L8.72647 6.72437C8.85425 6.85437 9.0648 6.93882 9.26258 6.93882C9.30063 6.93942 9.33863 6.93588 9.37591 6.92826L9.69536 6.88104C9.81534 6.86648 9.93025 6.82403 10.0309 6.75708C10.1315 6.69012 10.215 6.60053 10.2748 6.49548L10.752 5.58437C10.7692 5.56511 10.793 5.55301 10.8187 5.55048C10.8248 5.55104 10.9381 5.56993 11.1037 5.61104C11.2687 5.65271 11.3776 5.68993 11.3826 5.69215C11.3998 5.69937 11.4248 5.73548 11.4259 5.75326L11.4159 6.78215C11.4137 7.01215 11.552 7.27048 11.7309 7.38715L11.9892 7.57771C12.1609 7.72271 12.4554 7.78382 12.672 7.71548L13.6576 7.40882C13.6809 7.40882 13.707 7.42326 13.7037 7.41604L14.0192 7.94271C14.0254 7.95715 14.0192 7.99382 14.0098 8.00548L13.2754 8.72604C13.1115 8.88771 13.0265 9.16771 13.0715 9.37548L13.1181 9.69493C13.1381 9.92382 13.3004 10.1677 13.5042 10.2744L14.4154 10.7516C14.4345 10.7689 14.4465 10.7926 14.4492 10.8183C14.433 10.914 14.4128 11.0091 14.3887 11.1033C14.3657 11.1973 14.3386 11.2904 14.3076 11.3822C14.3004 11.3994 14.2642 11.4244 14.2465 11.4255L13.212 11.4155C12.9837 11.4155 12.7281 11.5538 12.6126 11.7305L12.4226 11.9888C12.3476 12.0838 12.296 12.1951 12.2721 12.3137C12.2481 12.4324 12.2525 12.555 12.2848 12.6716L12.5909 13.6527C12.5937 13.6677 12.5815 13.7033 12.5842 13.7038L12.0576 14.0194L11.9948 14.0099L11.2742 13.2755C11.1465 13.1455 10.9359 13.061 10.7381 13.061C10.7001 13.0604 10.6621 13.064 10.6248 13.0716L10.3054 13.1188C10.1854 13.1334 10.0705 13.1758 9.96985 13.2428C9.86923 13.3097 9.78568 13.3993 9.72592 13.5044L9.24869 14.4155C9.23151 14.4348 9.20772 14.4468 9.18203 14.4494C9.08624 14.4331 8.99116 14.4129 8.89703 14.3888C8.80295 14.3658 8.7099 14.3387 8.61814 14.3077C8.60091 14.3005 8.57592 14.2644 8.5748 14.2466L8.5848 13.2177C8.58703 12.9877 8.44869 12.7294 8.2698 12.6127L8.01147 12.4222C7.91641 12.3471 7.805 12.2955 7.68628 12.2716C7.56755 12.2476 7.44485 12.252 7.32814 12.2844L6.34258 12.591C6.31869 12.591 6.29258 12.5783 6.29647 12.5838L5.98091 12.0572C5.9748 12.0427 5.98091 12.006 5.99036 11.9944L6.7248 11.2738C6.88869 11.1122 6.97369 10.8322 6.92869 10.6244L6.88203 10.3055C6.86745 10.1854 6.82493 10.0705 6.75788 9.96985C6.69082 9.86921 6.6011 9.78571 6.49591 9.72604L5.5848 9.24882C5.56571 9.23151 5.55365 9.20778 5.55091 9.18215C5.55147 9.17604 5.57036 9.06271 5.61147 8.89715C5.65314 8.73215 5.69036 8.62326 5.69258 8.61826C5.6998 8.60104 5.73592 8.57604 5.75369 8.57493L6.78814 8.58493C7.01647 8.58493 7.27203 8.44659 7.38758 8.26993Z" fill="#3D3C3C"/>
<path d="M10.0007 11.6666C10.9195 11.6666 11.6673 10.9188 11.6673 9.99992C11.6673 9.08103 10.9195 8.33325 10.0007 8.33325C9.08176 8.33325 8.33398 9.08103 8.33398 9.99992C8.33398 10.9188 9.08176 11.6666 10.0007 11.6666ZM10.0007 8.88881C10.6134 8.88881 11.1118 9.38714 11.1118 9.99992C11.1118 10.6127 10.6134 11.111 10.0007 11.111C9.38787 11.111 8.88954 10.6127 8.88954 9.99992C8.88954 9.38714 9.38787 8.88881 10.0007 8.88881Z" fill="#3D3C3C"/>
</g>
<defs>
<clipPath id="clip0_4580_9637">
<rect width="10" height="10" fill="white" transform="translate(5 5)"/>
</clipPath>
</defs>
</svg>
