<svg width="20" height="20" viewBox="0 0 20 20" fill="none" xmlns="http://www.w3.org/2000/svg">
<g clip-path="url(#clip0_4580_9636)">
<path d="M7.0541 11.8686C8.1035 12.6894 8.9855 12.9522 10.0001 12.9522C10.8827 12.9522 12.0347 12.5844 13.1429 11.8008C13.9421 11.2356 14.6027 10.4118 15.1229 9.32285C14.5589 8.34365 13.9061 7.54205 13.1651 6.91505C12.1391 6.04625 11.0159 5.64785 9.9779 5.64785C8.9039 5.64785 7.6679 6.12665 6.6131 7.13225C5.8535 7.85585 5.2781 8.58425 4.8851 9.31505C5.5241 10.3884 6.2471 11.2386 7.0535 11.8686H7.0541ZM10.0001 13.8C8.8157 13.8 7.7591 13.485 6.5555 12.5436C5.6093 11.8044 4.7771 10.803 4.0571 9.54365C4.02194 9.48203 4.0024 9.41273 4.00021 9.34182C3.99801 9.2709 4.01322 9.20053 4.0445 9.13685C4.4849 8.24105 5.1551 7.36685 6.0527 6.51065C7.2629 5.35685 8.6999 4.80005 9.9779 4.80005C11.2037 4.80005 12.5117 5.26505 13.6883 6.26045C14.5577 6.99605 15.3101 7.94165 15.9461 9.09365C16.0121 9.21245 16.0181 9.35705 15.9623 9.48065C15.3695 10.8006 14.5853 11.8098 13.6097 12.4998C12.3641 13.38 11.0495 13.8 9.9995 13.8H10.0001ZM10.1405 11.64C9.84896 11.64 9.56028 11.5826 9.29094 11.4711C9.0216 11.3595 8.77687 11.196 8.57072 10.9898C8.36457 10.7837 8.20105 10.5389 8.08949 10.2696C7.97792 10.0003 7.9205 9.71158 7.9205 9.42005C7.9205 9.12851 7.97792 8.83983 8.08949 8.57049C8.20105 8.30115 8.36457 8.05642 8.57072 7.85027C8.77687 7.64413 9.0216 7.4806 9.29094 7.36904C9.56028 7.25747 9.84896 7.20005 10.1405 7.20005C10.7293 7.20005 11.2939 7.43394 11.7103 7.85027C12.1266 8.2666 12.3605 8.83127 12.3605 9.42005C12.3605 10.0088 12.1266 10.5735 11.7103 10.9898C11.2939 11.4062 10.7293 11.64 10.1405 11.64ZM10.1405 10.8C10.3217 10.8 10.5012 10.7644 10.6686 10.695C10.836 10.6257 10.9882 10.524 11.1163 10.3959C11.2445 10.2677 11.3461 10.1156 11.4155 9.94815C11.4848 9.78072 11.5205 9.60127 11.5205 9.42005C11.5205 9.23882 11.4848 9.05938 11.4155 8.89195C11.3461 8.72452 11.2445 8.57239 11.1163 8.44424C10.9882 8.3161 10.836 8.21445 10.6686 8.1451C10.5012 8.07574 10.3217 8.04005 10.1405 8.04005C9.7745 8.04005 9.42349 8.18544 9.16469 8.44424C8.90589 8.70304 8.7605 9.05405 8.7605 9.42005C8.7605 9.78605 8.90589 10.1371 9.16469 10.3959C9.42349 10.6547 9.7745 10.8 10.1405 10.8Z" fill="#3D3C3C"/>
</g>
<defs>
<clipPath id="clip0_4580_9636">
<rect width="12" height="12" fill="white" transform="translate(4 4)"/>
</clipPath>
</defs>
</svg>
