<svg width="15" height="15" viewBox="0 0 15 15" fill="none" xmlns="http://www.w3.org/2000/svg">
<path fill-rule="evenodd" clip-rule="evenodd" d="M10.5634 9.55348L14.3743 13.3643C14.5082 13.4984 14.5834 13.6801 14.5833 13.8696C14.5833 14.0591 14.5079 14.2408 14.3739 14.3748C14.2399 14.5087 14.0581 14.5839 13.8686 14.5838C13.6791 14.5838 13.4974 14.5084 13.3635 14.3744L9.55263 10.5636C8.41342 11.4459 6.98086 11.8611 5.54638 11.7248C4.1119 11.5884 2.78325 10.9107 1.83072 9.82945C0.878187 8.74824 0.373328 7.34476 0.418846 5.90453C0.464365 4.4643 1.05684 3.09551 2.07575 2.0766C3.09465 1.0577 4.46345 0.465219 5.90368 0.419701C7.34391 0.374182 8.74739 0.879041 9.8286 1.83157C10.9098 2.7841 11.5875 4.11275 11.7239 5.54724C11.8603 6.98172 11.4451 8.41428 10.5627 9.55348H10.5634ZM6.08321 10.3334C7.21038 10.3334 8.29138 9.88559 9.08841 9.08856C9.88544 8.29153 10.3332 7.21053 10.3332 6.08335C10.3332 4.95619 9.88544 3.87518 9.08841 3.07815C8.29138 2.28112 7.21038 1.83336 6.08321 1.83336C4.95604 1.83336 3.87504 2.28112 3.07801 3.07815C2.28098 3.87518 1.83321 4.95619 1.83321 6.08335C1.83321 7.21053 2.28098 8.29153 3.07801 9.08856C3.87504 9.88559 4.95604 10.3334 6.08321 10.3334Z" fill="black"/>
</svg>
