<svg width="40" height="40" viewBox="0 0 40 40" fill="none" xmlns="http://www.w3.org/2000/svg">
<rect x="1" y="18" width="7" height="12" rx="3" fill="#FACA5B"/>
<rect x="27" y="18" width="7" height="12" rx="3" fill="#FACA5B"/>
<path d="M17.5 2.53333C13.8533 2.53333 10.3559 3.86785 7.77728 6.24331C5.19866 8.61878 3.75 11.8406 3.75 15.2V18.24V22.2933V24.32C3.75 24.32 3.75 26.1814 3.75 26.8533V28.88C3.75 29.5519 3.75 29.3867 3.75 29.3867V29.8933V30C3.02065 30 2.01573 29.9751 1.5 29.5C0.984275 29.0249 1 28.5385 1 27.8667V15.2C1 13.2039 1.42678 11.2274 2.25599 9.38321C3.08519 7.53906 4.30057 5.86343 5.83274 4.45198C7.36491 3.04053 9.18385 1.9209 11.1857 1.15703C13.1876 0.39316 15.3332 0 17.5 0C19.6668 0 21.8124 0.39316 23.8143 1.15703C25.8162 1.9209 27.6351 3.04053 29.1673 4.45198C30.6994 5.86343 31.9148 7.53906 32.744 9.38321C33.5732 11.2274 34 13.2039 34 15.2V30.4C34 32.0797 33.2757 33.6906 31.9864 34.8783C30.697 36.0661 28.9484 36.7333 27.125 36.7333H21.2565C21.0151 37.1184 20.668 37.4382 20.25 37.6606C19.8319 37.8829 19.3577 38 18.875 38H16.125C15.3957 38 14.6962 37.7331 14.1805 37.258C13.6647 36.7829 13.375 36.1385 13.375 35.4667C13.375 34.7948 13.6647 34.1504 14.1805 33.6753C14.6962 33.2002 15.3957 32.9333 16.125 32.9333H18.875C19.3577 32.9333 19.8319 33.0504 20.25 33.2728C20.668 33.4951 21.0151 33.8149 21.2565 34.2H27.125C28.219 34.2 29.2682 33.7996 30.0418 33.087C30.8154 32.3744 31.25 31.4078 31.25 30.4V29.3867V28.88C31.25 28.88 31.25 28.0319 31.25 27.36V25.3333C31.25 24.6614 31.25 23.3067 31.25 23.3067V21.28V17.7333V15.2C31.25 13.5366 30.8943 11.8895 30.2033 10.3527C29.5123 8.81588 28.4995 7.41952 27.2227 6.24331C25.9459 5.06711 24.4301 4.13409 22.7619 3.49753C21.0937 2.86097 19.3057 2.53333 17.5 2.53333Z" fill="black"/>
</svg>
