<svg width="30" height="44" viewBox="0 0 30 44" fill="none" xmlns="http://www.w3.org/2000/svg">
<rect x="0.5" y="0.5" width="29" height="35" rx="1.5" fill="white"/>
<rect x="3.25" y="4.25" width="23.5" height="0.5" rx="0.25" stroke="black" stroke-width="0.5"/>
<rect x="3.25" y="7.25" width="23.5" height="0.5" rx="0.25" stroke="black" stroke-width="0.5"/>
<rect x="3.25" y="10.25" width="23.5" height="0.5" rx="0.25" stroke="black" stroke-width="0.5"/>
<rect x="3.25" y="13.25" width="23.5" height="0.5" rx="0.25" stroke="black" stroke-width="0.5"/>
<rect x="3.25" y="16.25" width="23.5" height="0.5" rx="0.25" stroke="black" stroke-width="0.5"/>
<rect x="3.25" y="19.25" width="12.5" height="0.5" rx="0.25" stroke="black" stroke-width="0.5"/>
<g clip-path="url(#clip0_3884_9644)">
<path d="M16.0467 37.8738C15.6846 37.5174 15.8733 37.6179 15 37.3878C14.6037 37.2832 14.2554 37.0822 13.9404 36.8415L12.05 41.404C11.8671 41.8458 12.2087 42.3257 12.6929 42.3076L14.8883 42.2252L16.3983 43.7953C16.7317 44.1414 17.3167 44.0336 17.4996 43.5918L19.6683 38.3574C19.2167 38.6051 18.7154 38.7503 18.1971 38.7503C17.3846 38.7503 16.6212 38.439 16.0467 37.8738ZM27.95 41.404L26.0596 36.8415C25.7446 37.0826 25.3962 37.2832 25 37.3878C24.1221 37.6191 24.3146 37.5182 23.9533 37.8738C23.3787 38.439 22.615 38.7503 21.8025 38.7503C21.2842 38.7503 20.7829 38.6047 20.3312 38.3574L22.5 43.5918C22.6829 44.0336 23.2683 44.1414 23.6012 43.7953L25.1117 42.2252L27.3071 42.3076C27.7912 42.3257 28.1329 41.8454 27.95 41.404ZM22.9583 36.9456C23.595 36.3078 23.6679 36.3628 24.5746 36.1196C25.1533 35.9641 25.6058 35.5109 25.7608 34.931C26.0725 33.7661 25.9917 33.9068 26.8421 33.0545C27.2658 32.63 27.4312 32.0111 27.2762 31.4311C26.965 30.2671 26.9646 30.4295 27.2762 29.2642C27.4312 28.6843 27.2658 28.0654 26.8421 27.6408C25.9917 26.7885 26.0725 26.9288 25.7608 25.7644C25.6058 25.1844 25.1533 24.7312 24.5746 24.5757C23.4129 24.2636 23.5529 24.3452 22.7017 23.4925C22.2779 23.068 21.66 22.9019 21.0812 23.0573C19.92 23.3691 20.0821 23.3695 18.9187 23.0573C18.34 22.9019 17.7221 23.0676 17.2983 23.4925C16.4479 24.3448 16.5879 24.2636 15.4258 24.5757C14.8471 24.7312 14.3946 25.1844 14.2396 25.7644C13.9283 26.9288 14.0087 26.7885 13.1583 27.6408C12.7346 28.0654 12.5687 28.6843 12.7242 29.2642C13.0354 30.4274 13.0358 30.265 12.7242 31.4307C12.5692 32.0106 12.7346 32.6296 13.1583 33.0545C14.0087 33.9068 13.9279 33.7661 14.2396 34.931C14.3946 35.5109 14.8471 35.9641 15.4258 36.1196C16.3583 36.3698 16.4279 36.3304 17.0417 36.9456C17.5929 37.4981 18.4517 37.597 19.1142 37.1844C19.3791 37.0188 19.6864 36.9309 20.0002 36.9309C20.314 36.9309 20.6213 37.0188 20.8862 37.1844C21.5483 37.597 22.4071 37.4981 22.9583 36.9456ZM16.0692 30.2174C16.0692 28.0424 17.8292 26.2791 20 26.2791C22.1708 26.2791 23.9308 28.0424 23.9308 30.2174C23.9308 32.3925 22.1708 34.1558 20 34.1558C17.8292 34.1558 16.0692 32.3925 16.0692 30.2174Z" fill="#FACA5B"/>
<mask id="path-9-inside-1_3884_9644" fill="white">
<path d="M19.4951 32.0704C19.2998 31.8751 19.2998 31.5585 19.4951 31.3632L22.0951 28.7633C22.2903 28.568 22.6069 28.568 22.8022 28.7633C22.9974 28.9585 22.9974 29.2751 22.8022 29.4704L20.2022 32.0704C20.0069 32.2656 19.6904 32.2656 19.4951 32.0704Z"/>
</mask>
<path d="M20.2022 32.0704L22.8022 29.4704L21.388 28.0562L18.788 30.6561L20.2022 32.0704ZM22.0951 28.7633L19.4951 31.3632L20.9093 32.7775L23.5093 30.1775L22.0951 28.7633ZM19.4951 31.3632C19.6904 31.168 20.0069 31.168 20.2022 31.3632L18.788 32.7775C19.3738 33.3632 20.3235 33.3632 20.9093 32.7775L19.4951 31.3632ZM22.0951 29.4704C21.8998 29.2751 21.8998 28.9585 22.0951 28.7633L23.5093 30.1775C24.0951 29.5917 24.0951 28.642 23.5093 28.0562L22.0951 29.4704ZM22.8022 29.4704C22.6069 29.6656 22.2903 29.6656 22.0951 29.4704L23.5093 28.0562C22.9235 27.4704 21.9737 27.4704 21.388 28.0562L22.8022 29.4704ZM18.788 30.6561C18.2022 31.2419 18.2022 32.1917 18.788 32.7775L20.2022 31.3632C20.3975 31.5585 20.3975 31.8751 20.2022 32.0704L18.788 30.6561Z" fill="black" mask="url(#path-9-inside-1_3884_9644)"/>
<mask id="path-11-inside-2_3884_9644" fill="white">
<path d="M17.9175 29.918C18.1127 29.7227 18.4293 29.7227 18.6246 29.918L20.1367 31.4302C20.332 31.6254 20.332 31.942 20.1367 32.1373C19.9415 32.3325 19.6249 32.3325 19.4296 32.1373L17.9175 30.6251C17.7222 30.4299 17.7222 30.1133 17.9175 29.918Z"/>
</mask>
<path d="M17.9175 30.6251L19.4296 32.1373L20.8438 30.7231L19.3317 29.2109L17.9175 30.6251ZM20.1367 31.4302L18.6246 29.918L17.2104 31.3322L18.7225 32.8444L20.1367 31.4302ZM18.6246 29.918C18.8198 30.1133 18.8198 30.4299 18.6246 30.6251L17.2104 29.2109C16.6246 29.7967 16.6246 30.7464 17.2104 31.3322L18.6246 29.918ZM19.4296 31.4302C19.6249 31.2349 19.9415 31.2349 20.1367 31.4302L18.7225 32.8444C19.3083 33.4302 20.2581 33.4302 20.8438 32.8444L19.4296 31.4302ZM19.4296 32.1373C19.2344 31.942 19.2344 31.6254 19.4296 31.4302L20.8438 32.8444C21.4296 32.2586 21.4296 31.3088 20.8438 30.7231L19.4296 32.1373ZM19.3317 29.2109C18.7459 28.6251 17.7962 28.6251 17.2104 29.2109L18.6246 30.6251C18.4293 30.8204 18.1127 30.8204 17.9175 30.6251L19.3317 29.2109Z" fill="black" mask="url(#path-11-inside-2_3884_9644)"/>
</g>
<rect x="0.5" y="0.5" width="29" height="35" rx="1.5" stroke="black"/>
<defs>
<clipPath id="clip0_3884_9644">
<rect width="16" height="21" fill="white" transform="translate(12 23)"/>
</clipPath>
</defs>
</svg>
