<svg width="40" height="40" viewBox="0 0 40 40" fill="none" xmlns="http://www.w3.org/2000/svg">
<g clip-path="url(#clip0_3846_7489)">
<path d="M4.5433 19.3455C4.75988 19.3971 5.05399 19.6642 5.1389 19.9079L5.5696 20.9465C5.66682 21.1459 5.64836 21.5409 5.53269 21.7304L3.81357 24.5412C3.44562 25.1442 3.52192 25.9982 4.01661 26.552L5.47239 28.0066C5.97939 28.457 6.87402 28.5382 7.45731 28.1851L10.268 26.4659C10.4439 26.3576 10.8217 26.3194 11.0863 26.4437L12.1237 26.872C12.3329 26.9446 12.5999 27.2375 12.6516 27.4541L13.4232 30.6586C13.5868 31.3379 14.2353 31.8966 14.9319 31.9606C14.9319 31.9606 15.3589 32 15.9988 32C16.6387 32 17.0669 31.9606 17.0669 31.9606C17.4195 31.919 17.7515 31.7728 18.0202 31.5407C18.2889 31.3086 18.4819 31.0014 18.5744 30.6586L19.3472 27.4541C19.3989 27.2387 19.6647 26.9446 19.9083 26.8597L20.9469 26.429C21.1303 26.3391 21.5548 26.3576 21.7308 26.4659L24.5415 28.1851C24.7888 28.3364 25.0841 28.4164 25.3979 28.4164C25.8225 28.4164 26.2335 28.2675 26.5522 27.9832L28.0068 26.5274C28.2374 26.2552 28.3783 25.9185 28.4102 25.5631C28.4421 25.2078 28.3636 24.8513 28.1852 24.5424L26.4661 21.7316C26.3504 21.5421 26.332 21.1471 26.4439 20.9133L26.8722 19.8759C26.9448 19.6667 27.2377 19.3996 27.4542 19.3479L30.6587 18.5763C31.0015 18.4835 31.3086 18.2902 31.5407 18.0213C31.7727 17.7524 31.9189 17.4203 31.9606 17.0676C31.9606 17.0676 32 16.6405 32 16.0006C32 15.3607 31.9606 14.9324 31.9606 14.9324C31.9188 14.5798 31.7725 14.2477 31.5405 13.9789C31.3085 13.71 31.0014 13.5167 30.6587 13.4237L27.4555 12.6533C27.2389 12.6016 26.9448 12.3346 26.8599 12.0909L26.4292 11.0523C26.3319 10.8529 26.3504 10.4579 26.4661 10.2684L28.1852 7.4576C28.5531 6.85459 28.4769 6.00054 27.9822 5.44676L26.5264 3.99216C26.0182 3.54052 25.1223 3.45929 24.5415 3.81371L21.7308 5.5329C21.5548 5.63997 21.1758 5.68058 20.9125 5.55505L19.8751 5.12679C19.6659 5.05419 19.4001 4.7613 19.3484 4.54471L18.5756 1.34015C18.4828 0.99735 18.2895 0.690168 18.0206 0.458136C17.7517 0.226103 17.4196 0.0798342 17.0669 0.0381496C17.0645 0.0393802 16.6374 0 15.9975 0C15.3576 0 14.9294 0.0393802 14.9294 0.0393802C14.5768 0.081225 14.2447 0.227551 13.9759 0.459559C13.707 0.691567 13.5137 0.99866 13.4207 1.34138L12.6504 4.54348C12.5987 4.76007 12.3316 5.05419 12.088 5.1391L11.0494 5.56982C10.8648 5.65966 10.4415 5.63997 10.2655 5.5329L7.45608 3.81371C6.87402 3.45929 5.99785 3.52082 5.44532 4.01554L3.99077 5.47137C3.76018 5.74355 3.61928 6.08032 3.58734 6.43562C3.5554 6.79093 3.63398 7.14742 3.81234 7.45637L5.53146 10.2671C5.64713 10.4566 5.66559 10.8517 5.55361 11.0855L5.12537 12.1229C5.05276 12.3321 4.75988 12.5992 4.5433 12.6508L1.33887 13.4225C0.99608 13.5153 0.688911 13.7086 0.456887 13.9775C0.224864 14.2463 0.0786004 14.5785 0.0369174 14.9312C0.0393786 14.9312 0 15.3582 0 15.9982C0 16.6381 0.0393786 17.0663 0.0393786 17.0663C0.0812218 17.419 0.227542 17.7511 0.459541 18.0199C0.69154 18.2888 0.998621 18.4821 1.34133 18.5751L4.5433 19.3455Z" fill="#FACA5B"/>
<path d="M19.8363 22.3851C19.7431 22.4897 19.6156 22.5576 19.4768 22.5766L16.894 22.5516C16.5753 22.5601 16.2662 22.663 16.006 22.8473C15.7458 23.0316 15.5463 23.289 15.4326 23.5868C15.4326 23.5868 15.3188 23.9101 15.1939 24.4055C15.0689 24.9009 15.0162 25.2395 15.0162 25.2395C14.9191 25.8653 15.2674 26.5578 15.8267 26.8506L18.1042 28.044C18.2263 28.1364 18.3086 28.2719 18.3346 28.4228L18.4637 29.304C18.4719 29.4432 18.4306 29.5808 18.3471 29.6925L16.5123 31.4909C16.0529 31.9405 15.9322 32.7093 16.2486 33.3129L17.08 34.7005C17.4311 35.2168 18.1916 35.4804 18.7884 35.2945L21.3199 34.5202C21.4573 34.5202 21.5947 34.5729 21.6724 34.6353L22.3872 35.1626C22.4912 35.2563 22.559 35.3835 22.5787 35.522L22.5537 38.092C22.5482 38.7247 22.9923 39.3589 23.5891 39.5671C23.5891 39.5671 23.9124 39.6808 24.4079 39.8057C24.9034 39.9306 25.242 39.9833 25.242 39.9833C25.2781 39.9889 25.4224 40 25.4585 40C25.7431 39.9965 26.0218 39.9182 26.2666 39.773C26.5114 39.6279 26.7137 39.4209 26.8533 39.173L28.0469 36.8958C28.1394 36.7738 28.2748 36.6914 28.4258 36.6655L29.3459 36.5323C29.4847 36.5323 29.6485 36.6044 29.6943 36.6516L31.493 38.4861C31.9301 38.9329 32.6671 39.0925 33.3152 38.7497L34.7017 37.9185C35.2319 37.5577 35.4886 36.8223 35.2971 36.2103L34.531 33.7583C34.5105 33.6059 34.5493 33.4515 34.6393 33.3268L35.1667 32.6121C35.2599 32.5075 35.3873 32.4396 35.5261 32.4206L38.1089 32.4456C38.4277 32.4372 38.7367 32.3343 38.9969 32.15C39.2571 31.9657 39.4567 31.7083 39.5704 31.4104C39.5704 31.4104 39.6842 31.0871 39.8091 30.5917C39.934 30.0963 39.9867 29.7577 39.9867 29.7577C40.0279 29.439 39.9727 29.1152 39.8283 28.828C39.6838 28.5409 39.4567 28.3036 39.1762 28.1466L36.8987 26.9533C36.7766 26.8608 36.6943 26.7254 36.6683 26.5744L36.5406 25.696C36.5325 25.5568 36.5737 25.4192 36.6572 25.3075L38.492 23.5091C38.9514 23.0595 39.0721 22.2907 38.7557 21.6871L37.9243 20.2995C37.5732 19.7846 36.8141 19.5182 36.2159 19.7042L33.683 20.4785C33.5563 20.4783 33.4329 20.438 33.3305 20.3633L32.6158 19.836C32.5117 19.7423 32.4439 19.6151 32.4242 19.4766L32.4492 16.9066C32.4439 16.5855 32.3424 16.2733 32.1578 16.0103C31.9733 15.7474 31.7141 15.5458 31.4139 15.4316C31.4139 15.4316 31.0905 15.3178 30.595 15.1929C30.0996 15.068 29.7609 15.0153 29.7609 15.0153C29.6889 15.0081 29.6167 15.003 29.5444 15C29.2598 15.0035 28.9812 15.0818 28.7364 15.227C28.4916 15.3721 28.2892 15.5791 28.1496 15.827L26.956 18.1042C26.8635 18.2262 26.7281 18.3086 26.5771 18.3345L25.657 18.4664C25.5313 18.4636 25.4096 18.4219 25.3086 18.347L23.51 16.5125C23.2749 16.2787 22.9707 16.1267 22.6425 16.0792C22.3142 16.0318 21.9794 16.0912 21.6877 16.2489L20.2998 17.0787C19.7697 17.4395 19.5129 18.175 19.7044 18.7869L20.4705 21.2389C20.491 21.3913 20.4523 21.5458 20.3623 21.6705L19.8363 22.3851Z" fill="white"/>
<path d="M19.8363 22.3851C19.7431 22.4897 19.6156 22.5576 19.4768 22.5766L16.894 22.5516C16.5753 22.5601 16.2662 22.663 16.006 22.8473C15.7458 23.0316 15.5463 23.289 15.4326 23.5868C15.4326 23.5868 15.3188 23.9101 15.1939 24.4055C15.0689 24.9009 15.0162 25.2395 15.0162 25.2395C14.9191 25.8653 15.2674 26.5578 15.8267 26.8506L18.1042 28.044C18.2263 28.1364 18.3086 28.2719 18.3346 28.4228L18.4637 29.304C18.4719 29.4432 18.4306 29.5808 18.3471 29.6925L16.5123 31.4909C16.0529 31.9405 15.9322 32.7093 16.2486 33.3129L17.08 34.7005C17.4311 35.2168 18.1916 35.4804 18.7884 35.2945L21.3199 34.5202C21.4573 34.5202 21.5947 34.5729 21.6724 34.6353L22.3872 35.1626C22.4912 35.2563 22.559 35.3835 22.5787 35.522L22.5537 38.092C22.5482 38.7247 22.9923 39.3589 23.5891 39.5671C23.5891 39.5671 23.9124 39.6808 24.4079 39.8057C24.9034 39.9306 25.242 39.9833 25.242 39.9833C25.2781 39.9889 25.4224 40 25.4585 40C25.7431 39.9965 26.0218 39.9182 26.2666 39.773C26.5114 39.6279 26.7137 39.4209 26.8533 39.173L28.0469 36.8958C28.1394 36.7738 28.2748 36.6914 28.4258 36.6655L29.3459 36.5323C29.4847 36.5323 29.6485 36.6044 29.6943 36.6516L31.493 38.4861C31.9301 38.9329 32.6671 39.0925 33.3152 38.7497L34.7017 37.9185C35.2319 37.5577 35.4886 36.8223 35.2971 36.2103L34.531 33.7583C34.5105 33.6059 34.5493 33.4515 34.6393 33.3268L35.1667 32.6121C35.2599 32.5075 35.3873 32.4396 35.5261 32.4206L38.1089 32.4456C38.4277 32.4372 38.7367 32.3343 38.9969 32.15C39.2571 31.9657 39.4567 31.7083 39.5704 31.4104C39.5704 31.4104 39.6842 31.0871 39.8091 30.5917C39.934 30.0963 39.9867 29.7577 39.9867 29.7577C40.0279 29.439 39.9727 29.1152 39.8283 28.828C39.6838 28.5409 39.4567 28.3036 39.1762 28.1466L36.8987 26.9533C36.7766 26.8608 36.6943 26.7254 36.6683 26.5744L36.5406 25.696C36.5325 25.5568 36.5737 25.4192 36.6572 25.3075L38.492 23.5091C38.9514 23.0595 39.0721 22.2907 38.7557 21.6871L37.9243 20.2995C37.5732 19.7846 36.8141 19.5182 36.2159 19.7042L33.683 20.4785C33.5563 20.4783 33.4329 20.438 33.3305 20.3633L32.6158 19.836C32.5117 19.7423 32.4439 19.6151 32.4242 19.4766L32.4492 16.9066C32.4439 16.5855 32.3424 16.2733 32.1578 16.0103C31.9733 15.7474 31.7141 15.5458 31.4139 15.4316C31.4139 15.4316 31.0905 15.3178 30.595 15.1929C30.0996 15.068 29.7609 15.0153 29.7609 15.0153C29.6889 15.0081 29.6167 15.003 29.5444 15C29.2598 15.0035 28.9812 15.0818 28.7364 15.227C28.4916 15.3721 28.2892 15.5791 28.1496 15.827L26.956 18.1042C26.8635 18.2262 26.7281 18.3086 26.5771 18.3345L25.657 18.4664C25.5313 18.4636 25.4096 18.4219 25.3086 18.347L23.51 16.5125C23.2749 16.2787 22.9707 16.1267 22.6425 16.0792C22.3142 16.0318 21.9794 16.0912 21.6877 16.2489L20.2998 17.0787C19.7697 17.4395 19.5129 18.175 19.7044 18.7869L20.4705 21.2389C20.491 21.3913 20.4523 21.5458 20.3623 21.6705L19.8363 22.3851ZM20.9743 23.1788L21.4504 22.5322C21.8223 22.0923 21.9666 21.3749 21.7946 20.8268L21.0298 18.3762C21.0229 18.3373 21.0534 18.2499 21.0465 18.2485L22.3622 17.4603L22.519 17.4839L24.3191 19.3184C24.6383 19.6431 25.1643 19.854 25.6584 19.854C25.7534 19.8555 25.8484 19.8467 25.9415 19.8277L26.7395 19.7097C27.0393 19.6733 27.3263 19.5673 27.5777 19.4001C27.8291 19.2328 28.0378 19.0091 28.1871 18.7467L29.3792 16.4709C29.4222 16.4228 29.4816 16.3926 29.5458 16.3863C29.5611 16.3877 29.8442 16.4348 30.2578 16.5375C30.67 16.6416 30.942 16.7346 30.9545 16.7401C30.9975 16.7582 31.06 16.8484 31.0627 16.8928L31.0378 19.4627C31.0322 20.0372 31.3778 20.6824 31.8247 20.9739L32.47 21.4498C32.8989 21.812 33.6344 21.9646 34.1757 21.794L36.6378 21.028C36.6961 21.028 36.7613 21.0641 36.753 21.046L37.5413 22.3615C37.5566 22.3976 37.5413 22.4892 37.5177 22.5183L35.6829 24.3181C35.2735 24.7219 35.0612 25.4213 35.1736 25.9403L35.2902 26.7382C35.3401 27.3099 35.7454 27.9191 36.2547 28.1855L38.5308 29.3775C38.5785 29.4207 38.6087 29.48 38.6155 29.544C38.5748 29.7833 38.5244 30.0208 38.4642 30.2559C38.4067 30.4909 38.3391 30.7233 38.2616 30.9525C38.2436 30.9955 38.1533 31.0579 38.1089 31.0607L35.5247 31.0357C34.9543 31.0357 34.3159 31.3813 34.0272 31.8225L33.5526 32.4678C33.3652 32.705 33.2364 32.9831 33.1766 33.2794C33.1168 33.5757 33.1277 33.8819 33.2084 34.1732L33.9731 36.6238C33.98 36.6613 33.9495 36.7501 33.9564 36.7515L32.6407 37.5397L32.4839 37.5161L30.6838 35.6816C30.3646 35.3569 29.8386 35.146 29.3446 35.146C29.2495 35.1445 29.1546 35.1533 29.0614 35.1723L28.2634 35.2903C27.9637 35.3267 27.6766 35.4327 27.4252 35.5999C27.1739 35.7672 26.9652 35.9909 26.8159 36.2533L25.6237 38.5291C25.5808 38.5772 25.5213 38.6074 25.4571 38.6137C25.2178 38.5731 24.9803 38.5226 24.7452 38.4625C24.5101 38.4049 24.2777 38.3373 24.0484 38.2599C24.0054 38.2418 23.943 38.1516 23.9402 38.1072L23.9652 35.5373C23.9707 34.9628 23.6252 34.3176 23.1783 34.0261L22.5329 33.5502C22.2954 33.3627 22.0171 33.2339 21.7205 33.1741C21.4239 33.1143 21.1174 33.1252 20.8258 33.206L18.3637 33.972C18.3041 33.972 18.2388 33.9401 18.2486 33.954L17.4602 32.6385C17.445 32.6024 17.4602 32.5108 17.4838 32.4817L19.3186 30.6819C19.728 30.2781 19.9404 29.5787 19.8279 29.0597L19.7114 28.2632C19.675 27.9634 19.5687 27.6762 19.4012 27.4249C19.2337 27.1735 19.0096 26.9649 18.7468 26.8159L16.4707 25.6239C16.423 25.5807 16.3929 25.5214 16.386 25.4574C16.3874 25.4421 16.4346 25.159 16.5373 24.7455C16.6414 24.3334 16.7344 24.0614 16.7399 24.0489C16.758 24.0059 16.8482 23.9434 16.8926 23.9407L19.4768 23.9656C20.0472 23.9656 20.6856 23.6201 20.9743 23.1788Z" fill="black"/>
<path d="M27.5909 31.7215C29.8681 31.7215 31.7212 29.8684 31.7212 27.5912C31.7212 25.3141 29.8681 23.4609 27.5909 23.4609C25.3137 23.4609 23.4606 25.3141 23.4606 27.5912C23.4606 29.8684 25.3137 31.7215 27.5909 31.7215ZM27.5909 24.8377C29.1095 24.8377 30.3444 26.0727 30.3444 27.5912C30.3444 29.1098 29.1095 30.3448 27.5909 30.3448C26.0723 30.3448 24.8374 29.1098 24.8374 27.5912C24.8374 26.0727 26.0723 24.8377 27.5909 24.8377Z" fill="black"/>
</g>
<defs>
<clipPath id="clip0_3846_7489">
<rect width="40" height="40" fill="white"/>
</clipPath>
</defs>
</svg>
