<?xml version="1.0" encoding="utf-8"?><svg viewBox="0 0 51 47" xmlns="http://www.w3.org/2000/svg" xmlns:xlink="http://www.w3.org/1999/xlink"><style>:root>svg{display:none}:root>svg:target{display:block}</style><svg fill="none" viewBox="0 0 16 16" id="black-star" xmlns="http://www.w3.org/2000/svg"><path d="M12.818 15.64l-4.897-3.59-4.991 3.458 1.902-5.767L0 6.062l6.072.027L8.078.357l1.851 5.784L16 6.277l-4.928 3.548 1.746 5.816z" fill="#000"/></svg><svg fill="none" viewBox="0 0 16 16" id="black-star2" xmlns="http://www.w3.org/2000/svg"><path d="M12.818 15.642L7.921 12.05 2.93 15.509l1.902-5.767L0 6.063l6.072.027L8.078.358l1.851 5.784L16 6.278l-4.928 3.548 1.746 5.816z" fill="#000"/></svg><svg fill="none" viewBox="0 0 15 14" id="cart-change" xmlns="http://www.w3.org/2000/svg"><path d="M10.625 6.858h-5.98l-.096.196-.542 1.105-.018.037-.01.04-.07.311-.01.039v.039a1.058 1.058 0 001.06 1.058h7.44v.009H4.96a1.067 1.067 0 01-.934-1.584L4.03 8.1l.004-.008.51-1.045.07-.143-.062-.147L1.978.697l-.09-.214h-.83V.475h.835l.511 1.203.09.214H12.75a1.067 1.067 0 01.828 1.738l-.008.01-2.064 2.753-.007.01a1.065 1.065 0 01-.874.455zm.708 4.242a1.067 1.067 0 110 2.134 1.067 1.067 0 010-2.134zm-6.375 0a1.067 1.067 0 110 2.134 1.067 1.067 0 010-2.134z" fill="#F8F15A" stroke="#F8F15A" stroke-width=".7"/></svg><svg fill="none" viewBox="0 0 30 30" id="cart-full-area" xmlns="http://www.w3.org/2000/svg"><rect width="30" height="30" rx="5" fill="#fff" fill-opacity=".9"/><path d="M17.625 15.858h-5.98l-.096.196-.542 1.105-.018.037-.01.04-.07.311-.01.039v.039a1.058 1.058 0 001.06 1.058h7.44v.009h-7.44a1.065 1.065 0 01-.934-1.584l.004-.008.004-.009.51-1.044.07-.143-.062-.147-2.573-6.06-.09-.214h-.83v-.008h.835l.511 1.203.09.214H19.75a1.066 1.066 0 01.828 1.738l-.008.01-2.064 2.753-.007.01a1.064 1.064 0 01-.874.455zm.708 4.242a1.067 1.067 0 110 2.133 1.067 1.067 0 010-2.133zm-6.375 0a1.067 1.067 0 110 2.134 1.067 1.067 0 010-2.134z" fill="#3D3C3C" stroke="#3D3C3C" stroke-width=".7"/></svg><svg fill="none" viewBox="0 0 30 30" id="cart-icon" xmlns="http://www.w3.org/2000/svg"><rect width="30" height="30" rx="5" fill="#fff" fill-opacity=".9"/><path d="M18.334 19.75a1.417 1.417 0 110 2.834 1.417 1.417 0 010-2.834zm0 .708a.709.709 0 100 1.418.709.709 0 000-1.418zm-6.375-.708a1.417 1.417 0 110 2.834 1.417 1.417 0 010-2.834zm0 .708a.709.709 0 100 1.418.709.709 0 000-1.418zm7.791-9.208h-9.723l1.804 4.25h5.794a.703.703 0 00.567-.285l2.125-2.833a.708.708 0 00-.567-1.132zm-2.125 4.958h-5.761l-.543 1.105-.07.312a.709.709 0 00.708.708h7.791v.709h-7.79a1.417 1.417 0 01-1.24-2.104l.51-1.044-2.573-6.06h-.948v-.709h1.417l.602 1.417H19.75a1.416 1.416 0 011.1 2.309l-2.064 2.752a1.415 1.415 0 01-1.16.605z" fill="#3D3C3C"/></svg><svg fill="none" viewBox="0 0 31 47" id="certificates-icon" xmlns="http://www.w3.org/2000/svg"><rect x=".5" y=".5" width="30" height="36" rx="1.5" fill="#fff"/><rect x="3.25" y="4.25" width="23.5" height=".5" rx=".25" stroke="#242424" stroke-width=".5"/><rect x="3.25" y="7.25" width="23.5" height=".5" rx=".25" stroke="#242424" stroke-width=".5"/><rect x="3.25" y="10.25" width="23.5" height=".5" rx=".25" stroke="#242424" stroke-width=".5"/><rect x="3.25" y="13.25" width="23.5" height=".5" rx=".25" stroke="#242424" stroke-width=".5"/><rect x="3.25" y="16.25" width="23.5" height=".5" rx=".25" stroke="#242424" stroke-width=".5"/><rect x="3.25" y="19.25" width="12.5" height=".5" rx=".25" stroke="#242424" stroke-width=".5"/><g clip-path="url(#afa)"><path d="M16.553 39.999c-.408-.408-.195-.293-1.178-.556-.446-.12-.838-.349-1.192-.624l-2.127 5.214a.75.75 0 00.724 1.033l2.47-.094 1.698 1.794a.75.75 0 001.24-.233l2.439-5.982a3.403 3.403 0 01-1.655.45 3.4 3.4 0 01-2.42-1.002zm13.39 4.034l-2.126-5.214c-.354.275-.746.505-1.192.624-.988.265-.771.15-1.177.556A3.4 3.4 0 0123.028 41a3.407 3.407 0 01-1.655-.449l2.44 5.982a.75.75 0 001.239.233l1.699-1.794 2.47.094a.75.75 0 00.723-1.033zm-5.615-5.095c.716-.729.799-.666 1.819-.944a1.905 1.905 0 001.334-1.359c.35-1.33.26-1.17 1.216-2.144a1.944 1.944 0 00.489-1.855c-.35-1.33-.35-1.145 0-2.477a1.944 1.944 0 00-.489-1.855c-.956-.974-.865-.814-1.216-2.145a1.905 1.905 0 00-1.335-1.358c-1.306-.357-1.149-.264-2.107-1.238a1.865 1.865 0 00-1.823-.497c-1.306.356-1.124.356-2.432 0a1.864 1.864 0 00-1.823.497c-.957.974-.8.881-2.107 1.238a1.905 1.905 0 00-1.334 1.358c-.35 1.331-.26 1.17-1.217 2.145a1.943 1.943 0 00-.488 1.855c.35 1.33.35 1.144 0 2.476-.175.663.011 1.37.488 1.856.957.974.866.813 1.217 2.144a1.905 1.905 0 001.334 1.359c1.05.286 1.128.24 1.818.944.62.631 1.586.744 2.331.273a1.86 1.86 0 011.994 0 1.862 1.862 0 002.331-.273zm-7.75-7.69c0-2.485 1.98-4.5 4.422-4.5 2.442 0 4.422 2.015 4.422 4.5 0 2.486-1.98 4.501-4.422 4.501-2.442 0-4.422-2.015-4.422-4.5z" fill="#FACA5B"/><path d="M20.783 33.01a.068.068 0 010-.096l2.925-2.971a.066.066 0 01.094 0 .068.068 0 010 .095l-2.925 2.972a.066.066 0 01-.094 0z" stroke="#000"/><path d="M19.008 31.262a.066.066 0 01.094 0l1.701 1.728a.068.068 0 010 .096.066.066 0 01-.094 0l-1.701-1.728a.068.068 0 010-.096z" stroke="#000"/></g><rect x=".5" y=".5" width="30" height="36" rx="1.5" stroke="#242424"/><defs><clipPath id="afa"><path fill="#fff" transform="translate(12 23)" d="M0 0h18v24H0z"/></clipPath></defs></svg><svg fill="none" viewBox="0 0 14 14" id="clear-cart" xmlns="http://www.w3.org/2000/svg"><path d="M5.572 2.429h2.857a1.429 1.429 0 00-2.857 0zm-.858 0a2.286 2.286 0 114.572 0h3.571a.429.429 0 110 .857h-.748l-.696 8.345a2.429 2.429 0 01-2.42 2.226H5.007a2.43 2.43 0 01-2.42-2.226L1.89 3.285h-.748a.429.429 0 110-.857h3.571zm-1.273 9.13A1.571 1.571 0 005.007 13h3.986a1.572 1.572 0 001.566-1.44l.69-8.274H2.751l.69 8.273zm2.273-6.273a.429.429 0 01.429.428v4.858a.429.429 0 01-.857 0V5.714a.429.429 0 01.428-.428zm3 .428a.429.429 0 10-.857 0v4.858a.429.429 0 00.857 0V5.714z" fill="#3D3C3C"/></svg><svg fill="none" viewBox="0 0 7 33" id="compare--arrow-next" xmlns="http://www.w3.org/2000/svg"><path d="M.15 28.931L3.975 16.5.15 4.069 1.334.25l5 16.25-5 16.25L.15 28.931z" fill="#828282"/></svg><svg fill="none" viewBox="0 0 7 33" id="compare--arrow-prev" xmlns="http://www.w3.org/2000/svg"><path d="M6.85 4.069L3.025 16.5 6.85 28.931 5.666 32.75l-5-16.25 5-16.25L6.85 4.069z" fill="#828282"/></svg><svg fill="none" viewBox="0 0 30 30" id="compare-full-area" xmlns="http://www.w3.org/2000/svg"><rect width="30" height="30" rx="5" fill="#fff" fill-opacity=".9"/><path fill="#000" d="M18 8h2v14h-2zm-4 3h2v11h-2zm-4-1h2v12h-2zm-4 5h2v7H6zm16 0h2v7h-2z"/></svg><svg fill="none" viewBox="0 0 18 14" id="compare-icon2" xmlns="http://www.w3.org/2000/svg"><path fill="#3D3C3C" d="M12 0h2v14h-2zM8 3h2v11H8zM4 2h2v12H4zM0 7h2v7H0zm16 0h2v7h-2z"/></svg><svg fill="none" viewBox="0 0 30 30" id="delete-full-area" xmlns="http://www.w3.org/2000/svg"><rect width="30" height="30" rx="5" fill="#fff" fill-opacity=".9"/><path d="M13.572 10.429h2.857a1.429 1.429 0 10-2.857 0zm-.858 0a2.286 2.286 0 114.572 0h3.571a.429.429 0 110 .857h-.748l-.696 8.345a2.429 2.429 0 01-2.42 2.226h-3.986a2.43 2.43 0 01-2.42-2.226l-.695-8.345h-.75a.428.428 0 110-.857h3.572zm-1.273 9.13A1.571 1.571 0 0013.007 21h3.986a1.572 1.572 0 001.566-1.44l.69-8.274h-8.497l.69 8.273zm2.273-6.273a.429.429 0 01.429.428v4.858a.429.429 0 11-.857 0v-4.857a.429.429 0 01.428-.43zm3 .428a.429.429 0 00-.857 0v4.858a.429.429 0 00.857 0v-4.857z" fill="#3D3C3C"/></svg><svg fill="none" viewBox="0 0 41 44" id="delivery-icon" xmlns="http://www.w3.org/2000/svg"><circle cx="26.5" cy="11.5" r="11" fill="#fff" stroke="#242424"/><rect y="16.444" width="27.333" height="21.815" rx="3" fill="#FACA5B"/><rect x="15.944" y="33.666" width="23.917" height="4.593" rx="1" fill="#FACA5B"/><path d="M14.944 38.833c0 2.309-1.854 4.167-4.125 4.167-2.27 0-4.125-1.858-4.125-4.167 0-2.309 1.855-4.166 4.125-4.166s4.125 1.857 4.125 4.166z" fill="#fff" stroke="#FACA5B" stroke-width="2"/><rect x="13.667" y="30.222" width="25.056" height="5.741" rx="1" fill="#FACA5B"/><path d="M26.056 23.185h4.512a2 2 0 011.475.65l5.154 5.628a2 2 0 01.525 1.351v3H26.056V23.186z" stroke="#FACA5B" stroke-width="2"/><path d="M35.444 38.833c0 2.309-1.854 4.167-4.125 4.167-2.27 0-4.125-1.858-4.125-4.167 0-2.309 1.855-4.166 4.125-4.166s4.125 1.857 4.125 4.166z" fill="#fff" stroke="#FACA5B" stroke-width="2"/><path d="M17.892 11.314a.945.945 0 01.165.342h-.1c-.021.091-.079.28-.131.308-.066.034-.165-.103-.165-.137 0-.034-.298.103-.33.103-.027 0-.012.068 0 .103H17c.033.182.1.554.1.582 0 .034.296.479.33.547a.45.45 0 00.131.137l.1.309.165.308.132-.035v-.274l.132-.17a.329.329 0 01-.033-.103c0-.028.066-.126.099-.172h.297l.198-.068.133-.24a1.009 1.009 0 00-.1-.17c-.033-.035.033-.138.033-.172 0-.027.045-.08.067-.103.055-.045.171-.144.198-.17.033-.035.066.136.099.17.026.028.12-.103.165-.17h.396l.364.547.561.342.297.206a.25.25 0 01.1-.103c.052-.027-.089-.194-.166-.274l.33-.103-.066-.342 1.09.274.1-.034.297.102-.033.274.165.24c.022.034.079.102.132.102.053 0 .242-.068.33-.102l.33.924.066-.034c.034.046.106.137.133.137h.297c.053 0 .22.32.297.48l.231.136.363-.171.232-.137.264.137c.066.068.099 0 .363.171.165.103.066 0 .132.034.066.035.1 0 .265-.137v-.205l.099-.137.198.137.231.137.165.205.463-.034.264.137.396.069h.231l.397-.309.495.103.231-.171.165-.48-.165-.17.33-.172h.43l.561.685.43.137.099.171.264-.171.33-.137-.132.822h-.066l-.198.137.264.308c.077.023.245.054.297 0 .053-.055.22-.32.298-.445l.198-1.335-.198-.822-.298-.171-.297.17-.363-.17.363-.925.297-.547.43-.309.066-.102.33.102.264-.41v-.617l.232-.17.198.17.099-.376v-.377l.132.24v1.712l.792.924.1-.616v-.445l-.199-.445-.264-.274-.198-.514.264-.274.397-.308v-.685l.297-.41-.1-.172-.297-.068a1.644 1.644 0 01-.363.068c-.106 0 .132-.09.264-.137v-.376h-.132v-.171h.33L35 7.514l-.165-.172.033-.205L34.835 7h-.297v.342l-.199-.137-.924.137-.529.343.1.342h-.298l-.594.342-.199-.068-.561.308-.529-.24-.198.411-.066-.308-.396.137v.377l-.529.068-.099.377-.23-.274c-.056-.126-.18-.377-.232-.377h-.33v.274c-.066.034-.218.082-.298 0-.079-.082-.076-.103-.066-.103H27.8l-.528.069.528-.48v-.239l-.198-.274-.33.103-.166-.445-.363.547-.792.137-.232.411-.627-.102c.022.057.053.198 0 .308-.053.11.066.25.132.308l-.132.582-.066-.616-.264-.24v.41l-.232-.444-.297.89-.231.342v-.205l.033-.514.33-.719-.132-.17-.495.376v.65h-.232c-.052 0-.088-.091-.099-.137l-.363-.513.066.308h-.33l.066-.137-.396-.137c-.066-.023-.185-.082-.133-.137.053-.055-.308-.023-.495 0a1.234 1.234 0 01-.297.068c-.08 0-.077-.045-.066-.068l.066-.205h.099l.066-.137-.066-.069h-.1l-.164.308-.232.103-.066-.205-.363.102-.099.103-.066-.103-.165-.17v.17h-.231v-.308l.23-.24.1-.308c.01.069.04.226.066.308a.807.807 0 00.165.24l.33.069.1-.24-.067-.616-.132-.171-.066-.24-.231-.069-.264.343h-.165l-.232.342-.363.342v.24l-.693.137-.067.171h-.165l-.264.24-.165-.069-.198.309.099.376-.1.103v.48l-.296-.138-.1.24.232.342h-.132l.033.24-.033.068.132.24v.103z" fill="#242424"/></svg><svg fill="none" viewBox="0 0 14 14" id="favorite-full" xmlns="http://www.w3.org/2000/svg"><path d="M6.558 1.313c.048.044.093.087.136.132l.307.318.306-.32a2.31 2.31 0 01.13-.125l.005-.004c1.757-1.62 4.743-.915 5.774 1.234.503 1.05.554 2.49-.35 4.231-.887 1.71-2.692 3.7-5.866 5.835C3.826 10.48 2.02 8.49 1.134 6.78.23 5.039.28 3.599.784 2.55 1.814.4 4.8-.306 6.558 1.312z" fill="#FFD413" stroke="#FFD413" stroke-width=".85"/></svg><svg fill="none" viewBox="0 0 30 30" id="favorite-full-area" xmlns="http://www.w3.org/2000/svg"><rect width="30" height="30" rx="5" fill="#fff" fill-opacity=".9"/><g clip-path="url(#aoa)"><path fill="#fff" d="M8 8h14v14H8z"/><path d="M14.558 9.313c.048.044.093.087.136.132l.307.318.306-.32c.042-.043.085-.085.13-.125l.005-.004c1.757-1.62 4.743-.915 5.774 1.234.503 1.05.554 2.49-.35 4.231-.887 1.71-2.692 3.7-5.866 5.835-3.174-2.134-4.979-4.125-5.866-5.834-.904-1.741-.853-3.181-.35-4.23 1.03-2.15 4.017-2.855 5.774-1.237z" stroke="#000" stroke-width=".85"/></g><defs><clipPath id="aoa"><path fill="#fff" transform="translate(8 8)" d="M0 0h14v14H0z"/></clipPath></defs></svg><svg fill="none" viewBox="0 0 30 30" id="favorite-icon" xmlns="http://www.w3.org/2000/svg"><rect width="30" height="30" rx="5" fill="#fff" fill-opacity=".9"/><g clip-path="url(#apa)"><path d="M15 10.405l-.627-.645c-1.473-1.514-4.173-.992-5.148.911-.458.896-.561 2.188.275 3.837.805 1.588 2.48 3.49 5.5 5.563 3.02-2.072 4.694-3.975 5.5-5.563.836-1.65.733-2.941.275-3.837-.975-1.903-3.675-2.426-5.148-.912l-.627.646zm0 10.72C1.584 12.259 10.869 5.34 14.846 9c.052.048.104.098.154.15.05-.052.1-.101.154-.149C19.13 5.338 28.416 12.259 15 21.125z" fill="#3D3C3C"/></g><defs><clipPath id="apa"><path fill="#fff" transform="translate(8 8)" d="M0 0h14v14H0z"/></clipPath></defs></svg><svg fill="none" viewBox="0 0 14 14" id="favorite-icon-red" xmlns="http://www.w3.org/2000/svg"><path d="M7 13.125C-6.416 4.26 2.869-2.66 6.846 1c.052.048.104.098.154.15.05-.052.1-.101.154-.149C11.13-2.662 20.416 4.259 7 13.125z" fill="red"/></svg><svg fill="none" viewBox="0 0 14 14" id="favorite-icon2" xmlns="http://www.w3.org/2000/svg"><path d="M7 2.405l-.627-.645C4.9.246 2.2.768 1.225 2.67c-.458.897-.561 2.19.275 3.838.805 1.588 2.48 3.49 5.5 5.563 3.02-2.072 4.694-3.975 5.5-5.563.836-1.65.733-2.941.275-3.837C11.8.768 9.1.245 7.627 1.76L7 2.405zm0 10.72C-6.416 4.26 2.869-2.66 6.846 1c.052.048.104.098.154.15.05-.052.1-.101.154-.149C11.13-2.662 20.416 4.259 7 13.125z" fill="#3D3C3C"/></svg><svg fill="none" viewBox="0 0 24 24" id="filters-icon" xmlns="http://www.w3.org/2000/svg"><path fill="#fff" d="M0 0h24v24H0z"/><path stroke="#000" stroke-linecap="round" d="M9.5 5.5v14m6-14v14"/><circle cx="15.5" cy="9.5" r="2" fill="#fff" stroke="#000"/><circle cx="9.5" cy="15.5" r="2" fill="#fff" stroke="#000"/></svg><svg fill="none" viewBox="0 0 30 30" id="form-plus" xmlns="http://www.w3.org/2000/svg"><path d="M15 23V7m-8 8h16" stroke="#828282" stroke-linecap="round"/></svg><svg fill="none" viewBox="0 0 43 21" id="left-icon" xmlns="http://www.w3.org/2000/svg"><path d="M43 11H2m0 0L12 1M2 11l10 9" stroke="#000" stroke-width="2"/></svg><svg fill="none" viewBox="0 0 14 14" id="list-icon" xmlns="http://www.w3.org/2000/svg"><path fill="#CBCBCB" d="M0 0h2v2H0zm0 4h2v2H0zm0 4h2v2H0zm0 4h2v2H0zM4 0h10v2H4zm0 4h10v2H4zm0 4h10v2H4zm0 4h10v2H4z"/></svg><svg fill="none" viewBox="0 0 16 16" id="location-icon" xmlns="http://www.w3.org/2000/svg"><path d="M12.5 6.5a4.5 4.5 0 10-9 0c0 1.846 1.477 4.252 4.5 7.134 3.023-2.882 4.5-5.288 4.5-7.134zM8 15c-3.667-3.333-5.5-6.167-5.5-8.5a5.5 5.5 0 1111 0c0 2.333-1.833 5.167-5.5 8.5z" fill="#000"/><path d="M8 8a1.5 1.5 0 100-3 1.5 1.5 0 000 3zm0 1a2.5 2.5 0 110-5 2.5 2.5 0 010 5z" fill="#000"/></svg><svg fill="none" viewBox="0 0 15 15" id="mail-icon" xmlns="http://www.w3.org/2000/svg"><path fill-rule="evenodd" clip-rule="evenodd" d="M13.75 1.875c.69 0 1.25.56 1.25 1.25v8.75c0 .69-.56 1.25-1.25 1.25H1.25c-.69 0-1.25-.56-1.25-1.25v-8.75c0-.69.56-1.25 1.25-1.25h12.5zM5.376 8.496l-3.683 3.639h11.494L9.544 8.534 7.5 9.948 5.376 8.496zm8.604-3.027l-3.597 2.487 3.597 3.552V5.469zm-12.96.046v5.877l3.515-3.473-3.514-2.404zm12.718-2.65H1.274a.268.268 0 00-.188.065.195.195 0 00-.064.167v1.215L7.5 8.742l6.483-4.474V3.15c0-.1-.023-.173-.069-.219a.229.229 0 00-.175-.064h-.001z" fill="#000"/></svg><svg fill="none" viewBox="0 0 51 32" id="pay-icon" xmlns="http://www.w3.org/2000/svg"><g clip-path="url(#aya)"><rect x="2" y="1" width="36" height="26" rx="3" fill="#FACA5B"/><rect y="10" width="14" height="8" rx="2" fill="#FACA5B" stroke="#fff"/><circle cx="10.25" cy="14.25" r="1.25" fill="#fff"/></g><rect x="20.5" y="12.5" width="30" height="19" rx="1.5" fill="#fff"/><rect x="37" y="25" width="11" height="4" rx="1" stroke="#2956A0"/><rect x="20.25" y="15.25" width="30.5" height=".5" rx=".25" stroke="#242424" stroke-width=".5"/><rect x="20.25" y="18.25" width="30.5" height=".5" rx=".25" stroke="#242424" stroke-width=".5"/><rect x="22.25" y="25.25" width="4.5" height=".5" rx=".25" stroke="#242424" stroke-width=".5"/><rect x="29.25" y="25.25" width="4.5" height=".5" rx=".25" stroke="#242424" stroke-width=".5"/><rect x="31.25" y="27.25" width="2.5" height=".5" rx=".25" stroke="#242424" stroke-width=".5"/><rect x="22.25" y="27.25" width="7.5" height=".5" rx=".25" stroke="#242424" stroke-width=".5"/><rect x="20.5" y="12.5" width="30" height="19" rx="1.5" stroke="#242424"/><defs><clipPath id="aya"><path fill="#fff" d="M0 0h39v28H0z"/></clipPath></defs></svg><svg fill="none" viewBox="0 0 20 20" id="person--compare" xmlns="http://www.w3.org/2000/svg"><path stroke="#3D3C3C" d="M9.5 7v7m-2-8v8m-2-4v4m6-9v9m2-5v5"/></svg><svg fill="none" viewBox="0 0 20 20" id="person--favorite" xmlns="http://www.w3.org/2000/svg"><g clip-path="url(#baa)"><path d="M10 6.718l-.448-.461c-1.052-1.081-2.98-.708-3.677.651-.327.64-.4 1.563.196 2.74.575 1.135 1.771 2.494 3.929 3.974 2.157-1.48 3.353-2.839 3.929-3.973.597-1.179.523-2.101.196-2.74-.696-1.36-2.625-1.734-3.677-.653L10 6.718zm0 7.657C.417 8.043 7.05 3.1 9.89 5.715c.037.034.074.07.11.106.035-.037.072-.072.11-.106 2.84-2.616 9.473 2.327-.11 8.66z" fill="#3D3C3C"/></g><defs><clipPath id="baa"><path fill="#fff" transform="translate(5 5)" d="M0 0h10v10H0z"/></clipPath></defs></svg><svg fill="none" viewBox="0 0 20 20" id="person--gear" xmlns="http://www.w3.org/2000/svg"><g clip-path="url(#bba)" fill="#3D3C3C"><path d="M6.932 7.952a.236.236 0 01-.144.077l-1.034-.01a.644.644 0 00-.585.414s-.045.13-.095.328-.071.334-.071.334c-.04.25.1.528.324.645l.912.478a.241.241 0 01.092.151l.052.353a.237.237 0 01-.047.156l-.735.72a.632.632 0 00-.105.73l.333.555c.14.206.445.312.684.238l1.013-.31a.24.24 0 01.141.046l.286.21a.239.239 0 01.077.145l-.01 1.029a.643.643 0 00.414.59s.13.046.328.096.334.07.334.07a.65.65 0 00.645-.324l.478-.911a.241.241 0 01.151-.093l.369-.053a.25.25 0 01.14.048l.72.734c.174.18.47.243.729.106l.555-.333a.629.629 0 00.238-.684l-.307-.982a.241.241 0 01.044-.172l.21-.286a.235.235 0 01.145-.077l1.034.01a.645.645 0 00.585-.415s.045-.129.095-.327c.05-.199.071-.334.071-.334a.645.645 0 00-.324-.645l-.912-.478a.242.242 0 01-.092-.152l-.051-.351a.236.236 0 01.046-.156l.735-.72a.632.632 0 00.105-.73l-.332-.555a.644.644 0 00-.684-.238l-1.014.31a.24.24 0 01-.141-.046l-.286-.211a.239.239 0 01-.077-.144l.01-1.03a.644.644 0 00-.415-.59s-.129-.045-.327-.095c-.199-.05-.334-.071-.334-.071a.65.65 0 00-.645.325l-.478.911a.242.242 0 01-.152.092l-.368.053a.243.243 0 01-.14-.048l-.72-.734a.618.618 0 00-.729-.106l-.555.333a.629.629 0 00-.239.684l.307.981a.24.24 0 01-.043.173l-.211.286zm.456.318l.19-.259a.77.77 0 00.138-.683l-.306-.98c-.003-.016.01-.051.006-.052l.527-.316.063.01.72.734c.128.13.339.215.537.215a.525.525 0 00.113-.01l.32-.048a.774.774 0 00.579-.386l.477-.91a.103.103 0 01.067-.035 3.568 3.568 0 01.564.142c.017.007.042.043.043.061l-.01 1.03a.768.768 0 00.315.604l.258.19a.783.783 0 00.683.138l.986-.306c.023 0 .049.014.046.007l.315.527c.006.014 0 .05-.01.062l-.734.721a.764.764 0 00-.204.65l.047.319c.02.229.182.473.386.58l.911.477c.02.017.032.04.034.066a3.558 3.558 0 01-.141.565.114.114 0 01-.062.043l-1.034-.01a.77.77 0 00-.6.314l-.19.259a.77.77 0 00-.137.683l.306.98c.003.016-.01.051-.007.052l-.526.315-.063-.01-.72-.734a.785.785 0 00-.537-.214.526.526 0 00-.113.01l-.32.048a.774.774 0 00-.58.385l-.476.912a.103.103 0 01-.067.033 3.55 3.55 0 01-.564-.141c-.017-.008-.042-.044-.043-.061l.01-1.03a.768.768 0 00-.315-.604l-.259-.19a.77.77 0 00-.683-.139l-.985.307c-.024 0-.05-.013-.047-.007l-.315-.527c-.006-.014 0-.051.01-.063l.734-.72a.764.764 0 00.204-.65l-.047-.319a.773.773 0 00-.386-.579l-.911-.477a.105.105 0 01-.034-.067 3.563 3.563 0 01.142-.564c.007-.017.043-.042.06-.043l1.035.01a.77.77 0 00.6-.315z"/><path d="M10 11.667c.92 0 1.667-.748 1.667-1.667s-.748-1.667-1.666-1.667c-.92 0-1.667.748-1.667 1.667s.748 1.667 1.667 1.667zm0-2.778a1.112 1.112 0 010 2.222 1.112 1.112 0 010-2.222z"/></g><defs><clipPath id="bba"><path fill="#fff" transform="translate(5 5)" d="M0 0h10v10H0z"/></clipPath></defs></svg><svg fill="none" viewBox="0 0 20 20" id="person--order" xmlns="http://www.w3.org/2000/svg"><path stroke="#3D3C3C" stroke-width=".7" d="M5.35 5.35h3.3v3.3h-3.3zm5 0h3.3v3.3h-3.3zm0 5h3.3v3.3h-3.3zm-5 0h3.3v3.3h-3.3z"/></svg><svg fill="none" viewBox="0 0 20 20" id="person--viewed" xmlns="http://www.w3.org/2000/svg"><g clip-path="url(#bda)"><path d="M7.054 11.869c1.05.82 1.931 1.083 2.946 1.083.883 0 2.035-.368 3.143-1.151.8-.565 1.46-1.39 1.98-2.478-.564-.98-1.217-1.781-1.958-2.408-1.026-.869-2.15-1.267-3.187-1.267-1.074 0-2.31.479-3.365 1.484-.76.724-1.335 1.452-1.728 2.183.64 1.073 1.362 1.924 2.168 2.554h.001zM10 13.8c-1.184 0-2.24-.315-3.444-1.256-.947-.74-1.779-1.741-2.499-3a.434.434 0 01-.013-.407c.44-.896 1.111-1.77 2.009-2.626C7.263 5.357 8.7 4.8 9.978 4.8c1.226 0 2.534.465 3.71 1.46.87.736 1.622 1.682 2.258 2.834a.433.433 0 01.016.387c-.592 1.32-1.377 2.329-2.352 3.019-1.246.88-2.56 1.3-3.61 1.3zm.14-2.16a2.221 2.221 0 110-4.442 2.221 2.221 0 010 4.442zm0-.84a1.379 1.379 0 10.001-2.758 1.379 1.379 0 000 2.758z" fill="#3D3C3C"/></g><defs><clipPath id="bda"><path fill="#fff" transform="translate(4 4)" d="M0 0h12v12H0z"/></clipPath></defs></svg><svg fill="none" viewBox="0 0 30 30" id="person-full-area" xmlns="http://www.w3.org/2000/svg"><rect width="30" height="30" rx="5" fill="#fff" fill-opacity=".9"/><path d="M14.583 17.067c1.681 0 3.183.318 4.25.816 1.1.513 1.6 1.143 1.6 1.7v1.684h-11.7v-1.684c0-.557.5-1.187 1.6-1.7 1.067-.498 2.57-.816 4.25-.816zm0-7.5a2.517 2.517 0 110 5.033 2.517 2.517 0 010-5.034z" stroke="#3D3C3C" stroke-width=".8"/></svg><svg fill="none" viewBox="0 0 30 30" id="person-icon" xmlns="http://www.w3.org/2000/svg"><rect width="30" height="30" rx="5" fill="#fff" fill-opacity=".9"/><path d="M14.584 16.667c3.451 0 6.25 1.305 6.25 2.916v2.084h-12.5v-2.084c0-1.61 2.798-2.916 6.25-2.916zM20 19.583c0-1.15-2.425-2.083-5.416-2.083-2.992 0-5.417.933-5.417 2.083v1.25H20v-1.25zM14.584 9.167a2.917 2.917 0 110 5.833 2.917 2.917 0 010-5.833zm0 .833a2.083 2.083 0 100 4.167 2.083 2.083 0 000-4.167z" fill="#3D3C3C"/></svg><svg fill="none" viewBox="0 0 13 13" id="phone" xmlns="http://www.w3.org/2000/svg"><path d="M3.138 5.744a9.435 9.435 0 004.118 4.119l1.375-1.375a.627.627 0 01.638-.157 7.1 7.1 0 002.231.357.625.625 0 01.625.624V11.5a.624.624 0 01-.625.625A10.625 10.625 0 01.875 1.5.625.625 0 011.5.875h2.188a.625.625 0 01.624.625 7.1 7.1 0 00.357 2.231.627.627 0 01-.156.638L3.138 5.744z" fill="#000"/></svg><svg fill="none" viewBox="0 0 13 13" id="phone-icon" xmlns="http://www.w3.org/2000/svg"><path d="M3.138 5.744a9.435 9.435 0 004.118 4.119l1.375-1.375a.627.627 0 01.638-.157 7.1 7.1 0 002.231.357.625.625 0 01.625.624V11.5a.624.624 0 01-.625.625A10.625 10.625 0 01.875 1.5.625.625 0 011.5.875h2.188a.625.625 0 01.624.625 7.1 7.1 0 00.357 2.231.627.627 0 01-.156.638L3.138 5.744z" fill="#000"/></svg><svg fill="none" viewBox="0 0 14 14" id="print" xmlns="http://www.w3.org/2000/svg"><path d="M3.864 10.81H2.418A1.524 1.524 0 01.894 9.286V6.238a1.524 1.524 0 011.524-1.524h9.153a1.524 1.524 0 011.524 1.524v3.048a1.524 1.524 0 01-1.524 1.524h-1.523" stroke="#3D3C3C" stroke-width=".7" stroke-linecap="round" stroke-linejoin="round"/><path d="M3.952 3.19V1.667a.762.762 0 01.762-.762h4.572a.762.762 0 01.762.762V3.19m-6.096 9.143v-3.81h6.096v3.81a.762.762 0 01-.762.762H4.714a.762.762 0 01-.762-.762z" stroke="#3D3C3C" stroke-width=".7" stroke-linecap="round" stroke-linejoin="round"/><path d="M11.952 6.619a.762.762 0 10-1.523 0 .762.762 0 001.523 0z" fill="#3D3C3C"/></svg><svg fill="none" viewBox="0 0 43 21" id="right-icon" xmlns="http://www.w3.org/2000/svg"><path d="M0 10h41m0 0L31 20m10-10L31 1" stroke="#000" stroke-width="2"/></svg><svg fill="none" viewBox="0 0 14 15" id="share" xmlns="http://www.w3.org/2000/svg"><path d="M11.617 10.072a2.269 2.269 0 00-1.633.703l-5.53-2.767a2.027 2.027 0 000-1.27l5.54-2.818a2.322 2.322 0 10-.485-.771L4.024 5.94a2.268 2.268 0 100 2.87l5.47 2.754c-.092.248-.14.51-.14.776a2.268 2.268 0 102.267-2.268h-.004z" fill="#3D3C3C"/></svg><svg fill="none" viewBox="0 0 30 30" id="share-full-area" xmlns="http://www.w3.org/2000/svg"><rect width="30" height="30" rx="5" fill="#fff" fill-opacity=".9"/><path d="M19.617 18.072a2.269 2.269 0 00-1.633.703l-5.53-2.767a2.028 2.028 0 000-1.27l5.539-2.817a2.322 2.322 0 10-.485-.771l-5.484 2.79a2.268 2.268 0 100 2.87l5.47 2.754a2.238 2.238 0 00.242 2.036 2.268 2.268 0 101.885-3.528h-.004z" fill="#3D3C3C"/></svg><svg fill="none" viewBox="0 0 23 23" id="telegram" xmlns="http://www.w3.org/2000/svg"><path d="M11.5.25a11.25 11.25 0 100 22.5 11.25 11.25 0 000-22.5zm3.578 17.046a.793.793 0 01-1.128.396l-3.054-2.374-1.96 1.81a.338.338 0 01-.32.043l.375-3.362.011.01.008-.067s5.496-5.004 5.72-5.216c.227-.213.152-.26.152-.26.013-.258-.406 0-.406 0l-7.283 4.685-3.031-1.032s-.466-.167-.51-.535c-.046-.364.524-.562.524-.562l12.057-4.79s.991-.441.991.29l-2.146 10.964z" fill="#000"/></svg><svg fill="none" viewBox="0 0 14 14" id="tile-icon" xmlns="http://www.w3.org/2000/svg"><path fill="#828282" d="M0 0h6v6H0zm8 0h6v6H8zm0 8h6v6H8zM0 8h6v6H0z"/></svg><svg fill="none" viewBox="0 0 15 15" id="time-icon" xmlns="http://www.w3.org/2000/svg"><path d="M7.5 1.875A5.626 5.626 0 001.875 7.5 5.626 5.626 0 007.5 13.125 5.626 5.626 0 0013.125 7.5 5.626 5.626 0 007.5 1.875z" stroke="#000" stroke-miterlimit="10"/><path d="M7.5 3.75v4.219h2.813" stroke="#000" stroke-linecap="round" stroke-linejoin="round"/></svg><svg fill="none" viewBox="0 0 25 25" id="vk" xmlns="http://www.w3.org/2000/svg"><path d="M12.5 0C5.596 0 0 5.596 0 12.5S5.596 25 12.5 25 25 19.404 25 12.5 19.404 0 12.5 0zm4.807 14.103s1.106 1.091 1.378 1.598c.008.01.012.02.014.026.11.186.137.33.082.438-.09.18-.403.269-.51.276h-1.953c-.136 0-.42-.035-.763-.272-.265-.185-.525-.488-.779-.784-.379-.44-.707-.82-1.038-.82a.396.396 0 00-.123.02c-.25.08-.57.437-.57 1.388 0 .296-.235.467-.4.467h-.895c-.305 0-1.892-.107-3.298-1.59C6.73 13.034 5.18 9.39 5.168 9.357c-.098-.236.104-.362.324-.362h1.973c.263 0 .349.16.409.302.07.165.328.823.751 1.562.686 1.206 1.107 1.696 1.444 1.696a.39.39 0 00.181-.047c.44-.245.358-1.814.338-2.14 0-.06 0-.701-.226-1.009-.162-.222-.436-.307-.603-.338a.716.716 0 01.26-.22c.301-.151.846-.173 1.386-.173h.3c.587.007.738.045.95.099.43.102.439.38.401 1.329-.012.27-.023.574-.023.934 0 .078-.004.161-.004.25-.013.483-.029 1.03.312 1.256a.282.282 0 00.149.043c.118 0 .475 0 1.441-1.657a12.64 12.64 0 00.775-1.66c.02-.033.077-.137.144-.178a.346.346 0 01.162-.037h2.319c.252 0 .425.037.458.135.057.155-.01.628-1.069 2.061l-.473.624c-.96 1.258-.96 1.321.06 2.276z" fill="#000"/></svg><svg fill="none" viewBox="0 0 40 40" id="warranty-icon" xmlns="http://www.w3.org/2000/svg"><path d="M14.51 28.64l.01.24c-.067.04-.37.16-.91.36-.213 1.273-.527 2.193-.94 2.76-.413.567-.92.85-1.52.85-.28 0-.503-.09-.67-.27-.167-.18-.25-.413-.25-.7 0-.573.263-1.11.79-1.61.527-.493 1.23-.883 2.11-1.17.1-.447.28-1.077.54-1.89-.447.68-.853 1.14-1.22 1.38-.36.24-.687.36-.98.36-.293 0-.517-.08-.67-.24-.147-.16-.22-.373-.22-.64 0-.44.183-.887.55-1.34.367-.46.827-.833 1.38-1.12.56-.293 1.1-.44 1.62-.44l.08.35c-.74.08-1.377.34-1.91.78-.527.44-.79.863-.79 1.27 0 .173.053.317.16.43.107.113.237.17.39.17.227 0 .57-.24 1.03-.72.46-.48.783-.89.97-1.23l.37.21c-.367.98-.62 1.807-.76 2.48l.84-.27zm-1.44.76c-.58.267-1.06.587-1.44.96-.38.373-.57.713-.57 1.02 0 .16.047.29.14.39.093.1.21.15.35.15.28 0 .557-.197.83-.59.273-.393.503-1.037.69-1.93zm5.848-4.29l.39.09c-.007.047-.104.25-.29.61-.18.353-.374.82-.58 1.4a7.306 7.306 0 00-.4 1.74l-.64-.05c0-.367.116-.84.35-1.42a4.218 4.218 0 00-.37-.01c-.18 0-.514.043-1 .13-.34.76-.51 1.41-.51 1.95l-.67-.09c0-.473.176-1.057.53-1.75a7.05 7.05 0 00-1.02.24l-.1-.39c0-.02.176-.077.53-.17.36-.093.626-.153.8-.18.533-1.227.896-1.937 1.09-2.13l.43.17-.23.45c-.3.58-.504 1.033-.61 1.36.58-.06.926-.09 1.04-.09.12 0 .22.003.3.01.466-1.073.786-1.697.96-1.87zm3.643 2.71l.23.18c-.207.287-.49.527-.85.72-.36.187-.71.28-1.05.28-.34 0-.614-.1-.82-.3-.207-.2-.31-.463-.31-.79 0-.613.323-1.217.97-1.81.653-.593 1.313-.89 1.98-.89.44 0 .66.173.66.52 0 .36-.234.723-.7 1.09-.46.367-1.11.7-1.95 1a.76.76 0 00.28.36c.126.087.256.13.39.13.286 0 .676-.163 1.17-.49zm-1.89-.3a5.318 5.318 0 001.39-.7c.386-.28.58-.537.58-.77a.316.316 0 00-.1-.23.316.316 0 00-.23-.1c-.314 0-.654.197-1.02.59-.36.387-.567.79-.62 1.21zm7.173.31l.21.17c-.113.28-.293.517-.54.71-.24.193-.46.29-.66.29a.573.573 0 01-.46-.2.831.831 0 01-.17-.54c0-.22.037-.503.11-.85-.313.493-.65.88-1.01 1.16-.36.28-.663.42-.91.42-.373 0-.56-.223-.56-.67 0-.447.154-1.047.46-1.8.314-.76.537-1.193.67-1.3l.48.21c-.273.44-.48.873-.62 1.3-.14.427-.21.713-.21.86 0 .14.044.253.13.34.094.087.2.13.32.13.267 0 .597-.243.99-.73.4-.493.807-1.227 1.22-2.2l.51.23c-.013.053-.166.44-.46 1.16-.286.72-.43 1.153-.43 1.3 0 .14.03.247.09.32.067.073.13.11.19.11a.825.825 0 00.15-.01.314.314 0 00.1-.04c.034-.02.06-.037.08-.05a.367.367 0 00.09-.07l.08-.08c.014-.013.037-.04.07-.08.04-.047.067-.077.08-.09zm-.58-3.81l.3.16c-.133.207-.306.39-.52.55-.206.16-.413.24-.62.24-.206 0-.423-.077-.65-.23-.226-.16-.41-.32-.55-.48l.32-.27c.347.34.63.51.85.51.34 0 .63-.16.87-.48z" fill="#000"/><path d="M9.396 6.364A17.195 17.195 0 0120 2.727 17.273 17.273 0 112.727 20c0-.822.055-1.198.182-2.07l.002-.005a1.363 1.363 0 00-2.698-.396l-.004.022C.08 18.44 0 18.978 0 20c0 11.046 8.955 20 20 20 11.046 0 20-8.954 20-20C40 8.955 31.046 0 20 0c-4.836 0-9.27 1.716-12.727 4.57V1.365a1.364 1.364 0 00-2.728 0v6.363c0 .753.611 1.364 1.364 1.364h6.364a1.364 1.364 0 000-2.727H9.396z" fill="#FACA5B"/><path d="M24.928 11.336c.288.224.432.496.432.816 0 .32-.264.68-.792 1.08s-1.056.832-1.584 1.296a23.484 23.484 0 00-1.704 1.68 21.417 21.417 0 00-1.608 1.992c-1.088 1.568-1.68 3.096-1.776 4.584l-1.752.168c.032-1.232.544-2.816 1.536-4.752.48-.976 1.16-1.96 2.04-2.952.88-.992 1.88-1.84 3-2.544-1.6.016-3.632.344-6.096.984l-.288-1.536c.368-.16 1.424-.376 3.168-.648 1.76-.272 3.056-.408 3.888-.408.848 0 1.36.08 1.536.24z" fill="#242424"/></svg></svg>