<svg width="15" height="14" viewBox="0 0 15 14" fill="none" xmlns="http://www.w3.org/2000/svg">
<path d="M10.6251 6.85833H10.6249H4.86334H4.64528L4.54917 7.05407L4.00658 8.15907L3.98853 8.19583L3.97946 8.23577L3.90862 8.54743L3.89992 8.58573V8.625C3.89992 8.90569 4.01142 9.17488 4.2099 9.37335C4.40837 9.57183 4.67756 9.68333 4.95825 9.68333H12.3999V9.69167H4.95825H4.95808C4.77236 9.69176 4.58983 9.64335 4.42855 9.55124C4.26728 9.45913 4.13285 9.32651 4.03857 9.1665C3.94428 9.00648 3.89341 8.82463 3.89099 8.63892C3.88856 8.45321 3.93467 8.27009 4.02475 8.10767L4.02916 8.09971L4.03316 8.09153L4.54316 7.04745L4.61322 6.90401L4.55084 6.75707L1.97818 0.696571L1.88766 0.483333H1.656H1.05825V0.475H1.89326L2.40412 1.67843L2.49464 1.89167H2.72629H7.73811H12.7499C12.7499 1.89167 12.7499 1.89167 12.7499 1.89167C12.9514 1.89169 13.1488 1.9488 13.3192 2.05639C13.4896 2.16398 13.6261 2.31764 13.7128 2.49959C13.7994 2.68153 13.8328 2.88431 13.809 3.08443C13.7851 3.28455 13.7051 3.47382 13.5782 3.63033L13.578 3.63017L13.5699 3.64086L11.5059 6.39344L11.5057 6.39332L11.4989 6.40302C11.4007 6.54367 11.27 6.65851 11.1178 6.73779C10.9657 6.81706 10.7966 6.85841 10.6251 6.85833ZM11.3333 11.1C11.6161 11.1 11.8875 11.2124 12.0875 11.4124C12.2875 11.6125 12.3999 11.8838 12.3999 12.1667C12.3999 12.4496 12.2875 12.7209 12.0875 12.9209C11.8875 13.121 11.6161 13.2333 11.3333 13.2333C11.0504 13.2333 10.779 13.121 10.579 12.9209C10.379 12.7209 10.2666 12.4496 10.2666 12.1667C10.2666 11.8838 10.379 11.6125 10.579 11.4124C10.779 11.2124 11.0504 11.1 11.3333 11.1ZM4.95825 11.1C5.24115 11.1 5.51246 11.2124 5.7125 11.4124C5.91254 11.6125 6.02492 11.8838 6.02492 12.1667C6.02492 12.4496 5.91254 12.7209 5.7125 12.9209C5.51246 13.121 5.24115 13.2333 4.95825 13.2333C4.67535 13.2333 4.40404 13.121 4.204 12.9209C4.00397 12.7209 3.89159 12.4496 3.89159 12.1667C3.89159 11.8838 4.00397 11.6125 4.204 11.4124C4.40404 11.2124 4.67535 11.1 4.95825 11.1Z" fill="#F8F15A" stroke="#F8F15A" stroke-width="0.7"/>
</svg>
