<svg width="30" height="30" viewBox="0 0 30 30" fill="none" xmlns="http://www.w3.org/2000/svg">
<rect width="30" height="30" rx="5" fill="white" fill-opacity="0.9"/>
<path d="M18.3335 19.75C18.7092 19.75 19.0696 19.8993 19.3352 20.1649C19.6009 20.4306 19.7502 20.7909 19.7502 21.1667C19.7502 21.5424 19.6009 21.9027 19.3352 22.1684C19.0696 22.4341 18.7092 22.5833 18.3335 22.5833C17.9578 22.5833 17.5974 22.4341 17.3318 22.1684C17.0661 21.9027 16.9168 21.5424 16.9168 21.1667C16.9168 20.7909 17.0661 20.4306 17.3318 20.1649C17.5974 19.8993 17.9578 19.75 18.3335 19.75ZM18.3335 20.4583C18.1456 20.4583 17.9655 20.533 17.8326 20.6658C17.6998 20.7986 17.6252 20.9788 17.6252 21.1667C17.6252 21.3545 17.6998 21.5347 17.8326 21.6675C17.9655 21.8004 18.1456 21.875 18.3335 21.875C18.5214 21.875 18.7015 21.8004 18.8344 21.6675C18.9672 21.5347 19.0418 21.3545 19.0418 21.1667C19.0418 20.9788 18.9672 20.7986 18.8344 20.6658C18.7015 20.533 18.5214 20.4583 18.3335 20.4583ZM11.9585 19.75C12.3342 19.75 12.6946 19.8993 12.9602 20.1649C13.2259 20.4306 13.3752 20.7909 13.3752 21.1667C13.3752 21.5424 13.2259 21.9027 12.9602 22.1684C12.6946 22.4341 12.3342 22.5833 11.9585 22.5833C11.5828 22.5833 11.2224 22.4341 10.9568 22.1684C10.6911 21.9027 10.5418 21.5424 10.5418 21.1667C10.5418 20.7909 10.6911 20.4306 10.9568 20.1649C11.2224 19.8993 11.5828 19.75 11.9585 19.75ZM11.9585 20.4583C11.7706 20.4583 11.5905 20.533 11.4576 20.6658C11.3248 20.7986 11.2502 20.9788 11.2502 21.1667C11.2502 21.3545 11.3248 21.5347 11.4576 21.6675C11.5905 21.8004 11.7706 21.875 11.9585 21.875C12.1464 21.875 12.3265 21.8004 12.4594 21.6675C12.5922 21.5347 12.6668 21.3545 12.6668 21.1667C12.6668 20.9788 12.5922 20.7986 12.4594 20.6658C12.3265 20.533 12.1464 20.4583 11.9585 20.4583ZM19.7502 11.25H10.0269L11.831 15.5H17.6252C17.7353 15.5002 17.844 15.4745 17.9424 15.425C18.0408 15.3756 18.1262 15.3037 18.1918 15.2152L20.3168 12.3819H20.3175C20.3961 12.2766 20.4438 12.1516 20.4554 12.0207C20.467 11.8899 20.4419 11.7584 20.383 11.6409C20.3242 11.5235 20.2338 11.4247 20.1221 11.3557C20.0103 11.2867 19.8815 11.2501 19.7502 11.25ZM17.6252 16.2083H11.8636L11.321 17.3133L11.2502 17.625C11.2502 17.8129 11.3248 17.993 11.4576 18.1259C11.5905 18.2587 11.7706 18.3333 11.9585 18.3333H19.7502V19.0417H11.9585C11.7118 19.0418 11.4694 18.9775 11.2552 18.8552C11.041 18.7328 10.8625 18.5567 10.7373 18.3442C10.612 18.1317 10.5445 17.8901 10.5413 17.6435C10.538 17.3968 10.5993 17.1536 10.7189 16.9379L11.2289 15.8938L8.65625 9.83333H7.7085V9.125H9.12516L9.72654 10.5417H19.7502C20.0178 10.5417 20.28 10.6175 20.5063 10.7604C20.7327 10.9033 20.9139 11.1074 21.029 11.3491C21.1441 11.5907 21.1884 11.86 21.1568 12.1258C21.1251 12.3916 21.0188 12.643 20.8502 12.8508L18.7861 15.6034C18.6556 15.7903 18.4819 15.9429 18.2798 16.0482C18.0777 16.1535 17.8531 16.2084 17.6252 16.2083Z" fill="#3D3C3C"/>
</svg>
