<svg width="30" height="30" viewBox="0 0 30 30" fill="none" xmlns="http://www.w3.org/2000/svg">
  <rect width="30" height="30" rx="5" fill="white" fill-opacity="0.9" />
  <path
    d="M17.6251 15.8583H17.6249H11.8633H11.6453L11.5492 16.0541L11.0066 17.1591L10.9885 17.1958L10.9795 17.2358L10.9086 17.5474L10.8999 17.5857V17.625C10.8999 17.9057 11.0114 18.1749 11.2099 18.3734C11.4084 18.5718 11.6776 18.6833 11.9583 18.6833H19.3999V18.6917H11.9583H11.9581C11.7724 18.6918 11.5898 18.6434 11.4286 18.5512C11.2673 18.4591 11.1328 18.3265 11.0386 18.1665C10.9443 18.0065 10.8934 17.8246 10.891 17.6389C10.8886 17.4532 10.9347 17.2701 11.0247 17.1077L11.0292 17.0997L11.0332 17.0915L11.5432 16.0474L11.6132 15.904L11.5508 15.7571L8.97818 9.69657L8.88766 9.48333H8.656H8.05825V9.475H8.89326L9.40412 10.6784L9.49464 10.8917H9.72629H14.7381H19.7499C19.7499 10.8917 19.7499 10.8917 19.7499 10.8917C19.9514 10.8917 20.1488 10.9488 20.3192 11.0564C20.4896 11.164 20.6261 11.3176 20.7128 11.4996C20.7994 11.6815 20.8328 11.8843 20.809 12.0844C20.7851 12.2845 20.7051 12.4738 20.5782 12.6303L20.578 12.6302L20.5699 12.6409L18.5059 15.3934L18.5057 15.3933L18.4989 15.403C18.4007 15.5437 18.27 15.6585 18.1178 15.7378C17.9657 15.8171 17.7966 15.8584 17.6251 15.8583ZM18.3333 20.1C18.6162 20.1 18.8875 20.2124 19.0875 20.4124C19.2875 20.6125 19.3999 20.8838 19.3999 21.1667C19.3999 21.4496 19.2875 21.7209 19.0875 21.9209C18.8875 22.121 18.6162 22.2333 18.3333 22.2333C18.0504 22.2333 17.779 22.121 17.579 21.9209C17.379 21.7209 17.2666 21.4496 17.2666 21.1667C17.2666 20.8838 17.379 20.6125 17.579 20.4124C17.779 20.2124 18.0504 20.1 18.3333 20.1ZM11.9583 20.1C12.2411 20.1 12.5125 20.2124 12.7125 20.4124C12.9125 20.6125 13.0249 20.8838 13.0249 21.1667C13.0249 21.4496 12.9125 21.7209 12.7125 21.9209C12.5125 22.121 12.2411 22.2333 11.9583 22.2333C11.6754 22.2333 11.404 22.121 11.204 21.9209C11.004 21.7209 10.8916 21.4496 10.8916 21.1667C10.8916 20.8838 11.004 20.6125 11.204 20.4124C11.404 20.2124 11.6754 20.1 11.9583 20.1Z"
    fill="#3D3C3C" stroke="#3D3C3C" stroke-width="0.7" />
</svg>
