<svg width="31" height="47" viewBox="0 0 31 47" fill="none" xmlns="http://www.w3.org/2000/svg">
<rect x="0.5" y="0.5" width="30" height="36" rx="1.5" fill="white"/>
<rect x="3.25" y="4.25" width="23.5" height="0.5" rx="0.25" stroke="#242424" stroke-width="0.5"/>
<rect x="3.25" y="7.25" width="23.5" height="0.5" rx="0.25" stroke="#242424" stroke-width="0.5"/>
<rect x="3.25" y="10.25" width="23.5" height="0.5" rx="0.25" stroke="#242424" stroke-width="0.5"/>
<rect x="3.25" y="13.25" width="23.5" height="0.5" rx="0.25" stroke="#242424" stroke-width="0.5"/>
<rect x="3.25" y="16.25" width="23.5" height="0.5" rx="0.25" stroke="#242424" stroke-width="0.5"/>
<rect x="3.25" y="19.25" width="12.5" height="0.5" rx="0.25" stroke="#242424" stroke-width="0.5"/>
<g clip-path="url(#clip0_3901_7998)">
<path d="M16.5526 39.9987C16.1453 39.5913 16.3576 39.7062 15.3751 39.4432C14.9293 39.3237 14.5374 39.094 14.1831 38.8188L12.0563 44.0332C11.8506 44.538 12.2349 45.0865 12.7796 45.0658L15.2495 44.9716L16.9482 46.766C17.3232 47.1616 17.9813 47.0383 18.1871 46.5335L20.627 40.5513C20.1188 40.8344 19.5549 41.0004 18.9718 41.0004C18.0578 41.0004 17.199 40.6446 16.5526 39.9987ZM29.9438 44.0332L27.8171 38.8188C27.4628 39.0944 27.0709 39.3237 26.6251 39.4432C25.6374 39.7076 25.854 39.5923 25.4476 39.9987C24.8012 40.6446 23.942 41.0004 23.0279 41.0004C22.4448 41.0004 21.8809 40.834 21.3728 40.5513L23.8126 46.5335C24.0184 47.0383 24.677 47.1616 25.0515 46.766L26.7507 44.9716L29.2206 45.0658C29.7653 45.0865 30.1496 44.5376 29.9438 44.0332ZM24.3282 38.9379C25.0445 38.209 25.1265 38.2718 26.1465 37.9938C26.7976 37.8162 27.3067 37.2982 27.481 36.6354C27.8317 35.3041 27.7407 35.4649 28.6974 34.4908C29.1742 34.0057 29.3603 33.2983 29.1859 32.6355C28.8357 31.3052 28.8353 31.4908 29.1859 30.1591C29.3603 29.4963 29.1742 28.789 28.6974 28.3038C27.7407 27.3298 27.8317 27.4901 27.481 26.1593C27.3067 25.4965 26.7976 24.9785 26.1465 24.8008C24.8396 24.4441 24.9971 24.5374 24.0395 23.5629C23.5628 23.0777 22.8676 22.8879 22.2165 23.0655C20.9101 23.4218 21.0924 23.4223 19.7837 23.0655C19.1326 22.8879 18.4374 23.0773 17.9607 23.5629C17.004 24.5369 17.1615 24.4441 15.8542 24.8008C15.2031 24.9785 14.694 25.4965 14.5196 26.1593C14.1695 27.4901 14.2599 27.3298 13.3032 28.3038C12.8265 28.789 12.6399 29.4963 12.8148 30.1591C13.1649 31.4885 13.1654 31.3029 12.8148 32.6351C12.6404 33.2979 12.8265 34.0052 13.3032 34.4908C14.2599 35.4649 14.169 35.3041 14.5196 36.6354C14.694 37.2982 15.2031 37.8162 15.8542 37.9938C16.9032 38.2798 16.9815 38.2348 17.672 38.9379C18.2921 39.5693 19.2582 39.6823 20.0035 39.2107C20.3016 39.0215 20.6473 38.921 21.0003 38.921C21.3534 38.921 21.6991 39.0215 21.9971 39.2107C22.742 39.6823 23.7081 39.5693 24.3282 38.9379ZM16.5779 31.2485C16.5779 28.7627 18.5579 26.7476 21.0001 26.7476C23.4423 26.7476 25.4223 28.7627 25.4223 31.2485C25.4223 33.7343 23.4423 35.7494 21.0001 35.7494C18.5579 35.7494 16.5779 33.7343 16.5779 31.2485Z" fill="#FACA5B"/>
<path d="M20.7827 33.0096C20.7567 32.9833 20.7567 32.9405 20.7827 32.9142L23.7076 29.9428C23.7336 29.9164 23.7757 29.9164 23.8016 29.9428C23.8276 29.9692 23.8276 30.0119 23.8016 30.0383L20.8767 33.0096C20.8507 33.036 20.8086 33.036 20.7827 33.0096Z" stroke="black"/>
<path d="M19.0079 31.2623C19.0339 31.236 19.076 31.236 19.1019 31.2623L20.8031 32.9905C20.829 33.0169 20.829 33.0596 20.8031 33.086C20.7771 33.1123 20.7351 33.1123 20.7091 33.086L19.0079 31.3578C18.982 31.3314 18.982 31.2887 19.0079 31.2623Z" stroke="black"/>
</g>
<rect x="0.5" y="0.5" width="30" height="36" rx="1.5" stroke="#242424"/>
<defs>
<clipPath id="clip0_3901_7998">
<rect width="18" height="24" fill="white" transform="translate(12 23)"/>
</clipPath>
</defs>
</svg>
