<svg width="30" height="30" viewBox="0 0 30 30" fill="none" xmlns="http://www.w3.org/2000/svg">
  <rect width="30" height="30" rx="5" fill="white" fill-opacity="0.9" />
  <path
    d="M13.5715 10.4288H16.4286C16.4286 10.0499 16.2781 9.68654 16.0102 9.41863C15.7423 9.15072 15.379 9.00021 15.0001 9.00021C14.6212 9.00021 14.2578 9.15072 13.9899 9.41863C13.722 9.68654 13.5715 10.0499 13.5715 10.4288ZM12.7144 10.4288C12.7144 9.82257 12.9552 9.24119 13.3838 8.81254C13.8125 8.38388 14.3939 8.14307 15.0001 8.14307C15.6063 8.14307 16.1877 8.38388 16.6163 8.81254C17.045 9.24119 17.2858 9.82257 17.2858 10.4288H20.8572C20.9709 10.4288 21.0799 10.4739 21.1603 10.5543C21.2406 10.6347 21.2858 10.7437 21.2858 10.8574C21.2858 10.971 21.2406 11.08 21.1603 11.1604C21.0799 11.2408 20.9709 11.2859 20.8572 11.2859H20.1086L19.4132 19.6305C19.3626 20.2375 19.0857 20.8034 18.6375 21.2159C18.1892 21.6283 17.6024 21.8573 16.9932 21.8574H13.0069C12.3978 21.8573 11.8109 21.6283 11.3626 21.2159C10.9144 20.8034 10.6375 20.2375 10.5869 19.6305L9.8915 11.2859H9.14293C9.02926 11.2859 8.92025 11.2408 8.83988 11.1604C8.75951 11.08 8.71436 10.971 8.71436 10.8574C8.71436 10.7437 8.75951 10.6347 8.83988 10.5543C8.92025 10.4739 9.02926 10.4288 9.14293 10.4288H12.7144ZM11.4412 19.5591C11.4739 19.9519 11.653 20.3181 11.943 20.585C12.233 20.8519 12.6128 21.0001 13.0069 21.0002H16.9932C17.3874 21.0001 17.7671 20.8519 18.0571 20.585C18.3471 20.3181 18.5262 19.9519 18.5589 19.5591L19.2492 11.2859H10.7515L11.4412 19.5591ZM13.7144 13.2859C13.828 13.2859 13.937 13.3311 14.0174 13.4114C14.0978 13.4918 14.1429 13.6008 14.1429 13.7145V18.5716C14.1429 18.6853 14.0978 18.7943 14.0174 18.8747C13.937 18.9551 13.828 19.0002 13.7144 19.0002C13.6007 19.0002 13.4917 18.9551 13.4113 18.8747C13.3309 18.7943 13.2858 18.6853 13.2858 18.5716V13.7145C13.2858 13.6008 13.3309 13.4918 13.4113 13.4114C13.4917 13.3311 13.6007 13.2859 13.7144 13.2859ZM16.7144 13.7145C16.7144 13.6008 16.6692 13.4918 16.5888 13.4114C16.5085 13.3311 16.3994 13.2859 16.2858 13.2859C16.1721 13.2859 16.0631 13.3311 15.9827 13.4114C15.9024 13.4918 15.8572 13.6008 15.8572 13.7145V18.5716C15.8572 18.6853 15.9024 18.7943 15.9827 18.8747C16.0631 18.9551 16.1721 19.0002 16.2858 19.0002C16.3994 19.0002 16.5085 18.9551 16.5888 18.8747C16.6692 18.7943 16.7144 18.6853 16.7144 18.5716V13.7145Z"
    fill="#3D3C3C" />
</svg>
