<svg width="41" height="44" viewBox="0 0 41 44" fill="none" xmlns="http://www.w3.org/2000/svg">
<circle cx="26.5" cy="11.5" r="11" fill="white" stroke="#242424"/>
<rect y="16.4443" width="27.3333" height="21.8148" rx="3" fill="#FACA5B"/>
<rect x="15.9443" y="33.6665" width="23.9167" height="4.59259" rx="1" fill="#FACA5B"/>
<path d="M14.9443 38.8332C14.9443 41.142 13.0899 42.9998 10.8193 42.9998C8.54878 42.9998 6.69434 41.142 6.69434 38.8332C6.69434 36.5243 8.54878 34.6665 10.8193 34.6665C13.0899 34.6665 14.9443 36.5243 14.9443 38.8332Z" fill="white" stroke="#FACA5B" stroke-width="2"/>
<rect x="13.6667" y="30.2222" width="25.0556" height="5.74074" rx="1" fill="#FACA5B"/>
<path d="M26.0557 23.1851H30.5683C31.1293 23.1851 31.6645 23.4207 32.0434 23.8344L37.1974 29.4634C37.5351 29.8321 37.7223 30.314 37.7223 30.814V33.8147H26.0557V23.1851Z" stroke="#FACA5B" stroke-width="2"/>
<path d="M35.4443 38.8332C35.4443 41.142 33.5899 42.9998 31.3193 42.9998C29.0488 42.9998 27.1943 41.142 27.1943 38.8332C27.1943 36.5243 29.0488 34.6665 31.3193 34.6665C33.5899 34.6665 35.4443 36.5243 35.4443 38.8332Z" fill="white" stroke="#FACA5B" stroke-width="2"/>
<path d="M17.8917 11.3137C17.9358 11.3708 18.0305 11.5191 18.0569 11.6561H17.9578C17.9358 11.7474 17.8785 11.9368 17.8257 11.9642C17.7596 11.9984 17.6606 11.8615 17.6606 11.8272C17.6606 11.793 17.3633 11.9299 17.3303 11.9299C17.3039 11.9299 17.3193 11.9984 17.3303 12.0326H17C17.033 12.2152 17.0991 12.5873 17.0991 12.6147C17.0991 12.6489 17.3963 13.094 17.4294 13.1624C17.4558 13.2172 17.5284 13.2765 17.5615 13.2994L17.6606 13.6075L17.8257 13.9156L17.9578 13.8814V13.6075L18.0899 13.4363C18.0789 13.4135 18.0569 13.361 18.0569 13.3336C18.0569 13.3062 18.1229 13.2081 18.156 13.1624H18.4532L18.6514 13.094L18.7835 12.8543C18.7615 12.8087 18.7108 12.7105 18.6844 12.6831C18.6514 12.6489 18.7174 12.5462 18.7174 12.5119C18.7174 12.4846 18.7615 12.4321 18.7835 12.4092C18.8385 12.3636 18.9552 12.2655 18.9817 12.2381C19.0147 12.2038 19.0477 12.375 19.0807 12.4092C19.1072 12.4366 19.2018 12.3065 19.2459 12.2381H19.6422L20.0055 12.7858L20.567 13.1282L20.8642 13.3336C20.8752 13.3108 20.9105 13.2583 20.9633 13.2309C21.0161 13.2035 20.8752 13.0369 20.7982 12.957L21.1284 12.8543L21.0624 12.5119L22.1523 12.7858L22.2514 12.7516L22.5486 12.8543L22.5156 13.1282L22.6807 13.3678C22.7028 13.4021 22.76 13.4705 22.8128 13.4705C22.8657 13.4705 23.055 13.4021 23.1431 13.3678L23.4734 14.2922L23.5394 14.258C23.5725 14.3036 23.6451 14.3949 23.6716 14.3949H23.9688C24.0217 14.3949 24.189 14.7144 24.2661 14.8742L24.4972 15.0112L24.8605 14.84L25.0917 14.703L25.356 14.84C25.422 14.9084 25.455 14.84 25.7193 15.0112C25.8844 15.1139 25.7853 15.0112 25.8514 15.0454C25.9174 15.0796 25.9505 15.0454 26.1156 14.9084V14.703L26.2147 14.5661L26.4128 14.703L26.644 14.84L26.8092 15.0454L27.2716 15.0112L27.5358 15.1481L27.9321 15.2166H28.1633L28.5596 14.9084L29.055 15.0112L29.2862 14.84L29.4514 14.3607L29.2862 14.1895L29.6165 14.0183H30.0459L30.6073 14.703L31.0367 14.84L31.1358 15.0112L31.4 14.84L31.7303 14.703L31.5982 15.5247H31.5321L31.3339 15.6616L31.5982 15.9698C31.6752 15.9926 31.8426 16.0245 31.8954 15.9698C31.9483 15.915 32.1156 15.6502 32.1927 15.5247L32.3908 14.1895L32.1927 13.3678L31.8954 13.1967L31.5982 13.3678L31.2349 13.1967L31.5982 12.2723L31.8954 11.7245L32.3248 11.4164L32.3908 11.3137L32.7211 11.4164L32.9853 11.0056V10.3893L33.2165 10.2182L33.4147 10.3893L33.5138 10.0127V9.63615L33.6459 9.8758V11.5876L34.4385 12.5119L34.5376 11.8957V11.4506L34.3394 11.0056L34.0752 10.7317L33.8771 10.2182L34.1413 9.94427L34.5376 9.63615V8.95144L34.8349 8.54061L34.7358 8.36943L34.4385 8.30096C34.3615 8.32378 34.1809 8.36943 34.0752 8.36943C33.9695 8.36943 34.2073 8.27813 34.3394 8.23249V7.85589H34.2073V7.68471H34.5376L35 7.51354L34.8349 7.34236L34.8679 7.13694L34.8349 7H34.5376V7.34236L34.3394 7.20541L33.4147 7.34236L32.8862 7.68471L32.9853 8.02707H32.6881L32.0936 8.36943L31.8954 8.30096L31.3339 8.60908L30.8055 8.36943L30.6073 8.78026L30.5413 8.47214L30.145 8.60908V8.98567L29.6165 9.05414L29.5174 9.43074L29.2862 9.15685C29.2312 9.03132 29.1079 8.78026 29.055 8.78026H28.7248V9.05414C28.6587 9.08838 28.5068 9.13631 28.4275 9.05414C28.3483 8.97198 28.3505 8.95144 28.3615 8.95144H27.8L27.2716 9.01991L27.8 8.54061V8.30096L27.6018 8.02707L27.2716 8.12978L27.1064 7.68471L26.7431 8.23249L25.9505 8.36943L25.7193 8.78026L25.0917 8.67755C25.1138 8.73461 25.1446 8.87612 25.0917 8.98567C25.0389 9.09523 25.1578 9.23673 25.2239 9.29379L25.0917 9.8758L25.0257 9.25956L24.7615 9.01991V9.43074L24.5303 8.98567L24.233 9.8758L24.0018 10.2182V10.0127L24.0349 9.49921L24.3651 8.78026L24.233 8.60908L23.7376 8.98567V9.25956V9.63615H23.5064C23.4536 9.63615 23.4183 9.54485 23.4073 9.49921L23.044 8.98567L23.1101 9.29379H22.7798L22.8459 9.15685L22.4495 9.01991C22.3835 8.99708 22.2646 8.93774 22.3174 8.88296C22.3703 8.82819 22.0092 8.86014 21.822 8.88296C21.756 8.90579 21.604 8.95144 21.5248 8.95144C21.4455 8.95144 21.4477 8.90579 21.4587 8.88296L21.5248 8.67755H21.6239L21.6899 8.54061L21.6239 8.47214H21.5248L21.3596 8.78026L21.1284 8.88296L21.0624 8.67755L20.6991 8.78026L20.6 8.88296L20.5339 8.78026L20.3688 8.60908V8.78026H20.1376V8.47214L20.3688 8.23249L20.4679 7.92436C20.4789 7.99284 20.5075 8.15032 20.5339 8.23249C20.5604 8.31465 20.655 8.42649 20.6991 8.47214L21.0294 8.54061L21.1284 8.30096L21.0624 7.68471L20.9303 7.51354L20.8642 7.27389L20.633 7.20541L20.3688 7.54777H20.2037L19.9725 7.89013L19.6092 8.23249V8.47214L18.9156 8.60908L18.8495 8.78026H18.6844L18.4202 9.01991L18.255 8.95144L18.0569 9.25956L18.156 9.63615L18.0569 9.73886V10.2182L17.7596 10.0812L17.6606 10.3209L17.8917 10.6632H17.7596L17.7927 10.9029L17.7596 10.9713L17.8917 11.211V11.3137Z" fill="#242424"/>
</svg>
