<svg width="30" height="30" viewBox="0 0 30 30" fill="none" xmlns="http://www.w3.org/2000/svg">
<rect width="30" height="30" rx="5" fill="white" fill-opacity="0.9"/>
<g clip-path="url(#clip0_3077_3434)">
<path d="M14.9999 10.4045L14.3725 9.75967C12.8999 8.24592 10.1997 8.76829 9.22491 10.6714C8.76728 11.5665 8.66403 12.8589 9.49966 14.5083C10.3047 16.0964 11.9794 17.9987 14.9999 20.0707C18.0204 17.9987 19.6943 16.0964 20.5002 14.5083C21.3358 12.858 21.2334 11.5665 20.7749 10.6714C19.8002 8.76829 17.0999 8.24504 15.6273 9.75879L14.9999 10.4045ZM14.9999 21.125C1.58353 12.2595 10.869 5.34004 14.8459 9.00017C14.8984 9.04829 14.95 9.09817 14.9999 9.14979C15.0493 9.09821 15.1006 9.04859 15.1539 9.00104C19.1299 5.33829 28.4163 12.2587 14.9999 21.125Z" fill="#3D3C3C"/>
</g>
<defs>
<clipPath id="clip0_3077_3434">
<rect width="14" height="14" fill="white" transform="translate(8 8)"/>
</clipPath>
</defs>
</svg>
