<svg width="30" height="30" viewBox="0 0 30 30" fill="none" xmlns="http://www.w3.org/2000/svg">
  <rect width="30" height="30" rx="5" fill="white" fill-opacity="0.9" />
  <g clip-path="url(#clip0_4995_13238)">
    <rect width="14" height="14" transform="translate(8 8)" fill="white" />
    <path
      d="M14.5581 9.31288L14.5587 9.31346C14.6058 9.35657 14.6511 9.40044 14.6943 9.44509L15.0013 9.76294L15.3069 9.44366C15.3486 9.40012 15.392 9.35822 15.437 9.31807L15.437 9.31811L15.4419 9.31362C17.199 7.69494 20.1854 8.39948 21.2158 10.5484C21.719 11.5978 21.7696 13.0378 20.8659 14.7793C19.9788 16.489 18.1737 18.4795 14.9999 20.6143C11.8261 18.4797 10.021 16.4894 9.13379 14.7799C8.23001 13.0385 8.28051 11.5986 8.78366 10.5492C9.81404 8.40033 12.8006 7.69532 14.5581 9.31288Z"
      fill="none" stroke="#000000" stroke-width="0.85" />
  </g>
  <defs>
    <clipPath id="clip0_4995_13238">
      <rect width="14" height="14" fill="white" transform="translate(8 8)" />
    </clipPath>
  </defs>
</svg>
