<svg width="14" height="14" viewBox="0 0 14 14" fill="none" xmlns="http://www.w3.org/2000/svg">
<path d="M6.5581 1.31288L6.55873 1.31346C6.60576 1.35657 6.65112 1.40044 6.69425 1.44509L7.00133 1.76294L7.30693 1.44366C7.34862 1.40012 7.39199 1.35822 7.43696 1.31807L7.43699 1.31811L7.44186 1.31362C9.19898 -0.305059 12.1854 0.399482 13.2158 2.54839C13.719 3.59776 13.7696 5.03777 12.8659 6.77934C11.9788 8.48897 10.1737 10.4795 6.9999 12.6143C3.82608 10.4797 2.02099 8.48938 1.13379 6.77992C0.23001 5.03851 0.280507 3.59861 0.783663 2.54925C1.81404 0.400326 4.80055 -0.304681 6.5581 1.31288Z" fill="#FFD413" stroke="#FFD413" stroke-width="0.85"/>
</svg>
