<svg width="15" height="15" viewBox="0 0 15 15" fill="none" xmlns="http://www.w3.org/2000/svg">
<path fill-rule="evenodd" clip-rule="evenodd" d="M13.7498 1.875C14.4397 1.875 15 2.4345 15 3.12525V11.8748C15 12.5647 14.4405 13.125 13.7498 13.125H1.25025C0.56025 13.125 0 12.5655 0 11.8748V3.12525C0 2.43525 0.5595 1.875 1.25025 1.875H13.7498ZM5.376 8.496L1.6935 12.135H13.1873L9.5445 8.5335L7.5 9.94875L5.376 8.496ZM13.98 5.469L10.383 7.956L13.98 11.508V5.469ZM1.02075 5.51475V11.3918L4.53525 7.9185L1.02075 5.51475ZM13.7377 2.86575H1.2735C1.20506 2.86254 1.13798 2.88561 1.086 2.93025C1.0629 2.95094 1.04507 2.97683 1.03398 3.00579C1.0229 3.03474 1.01887 3.06593 1.02225 3.09675V4.31175L7.5 8.742L13.983 4.26825V3.14925C13.9837 3.04875 13.9605 2.976 13.914 2.93025C13.8909 2.90778 13.8634 2.89043 13.8331 2.87932C13.8029 2.8682 13.7706 2.86358 13.7385 2.86575H13.7377Z" fill="black"/>
</svg>
