<svg width="30" height="30" viewBox="0 0 30 30" fill="none" xmlns="http://www.w3.org/2000/svg">
<rect width="30" height="30" rx="5" fill="white" fill-opacity="0.9"/>
<path d="M14.5833 17.0665C16.2641 17.0665 17.7664 17.3853 18.8335 17.8832C19.9331 18.3964 20.4333 19.0255 20.4333 19.5832V21.2665H8.73325V19.5832C8.73325 19.0255 9.23345 18.3964 10.333 17.8832C11.4001 17.3853 12.9024 17.0665 14.5833 17.0665ZM14.5833 9.5665C15.2507 9.5665 15.8908 9.83165 16.3628 10.3036C16.8348 10.7756 17.0999 11.4157 17.0999 12.0832C17.0999 12.7506 16.8348 13.3908 16.3628 13.8627C15.8908 14.3347 15.2507 14.5998 14.5833 14.5998C13.9158 14.5998 13.2757 14.3347 12.8037 13.8627C12.3317 13.3908 12.0666 12.7506 12.0666 12.0832C12.0666 11.4157 12.3317 10.7756 12.8037 10.3036C13.2757 9.83165 13.9158 9.5665 14.5833 9.5665Z" stroke="#3D3C3C" stroke-width="0.8"/>
</svg>
