<svg width="30" height="30" viewBox="0 0 30 30" fill="none" xmlns="http://www.w3.org/2000/svg">
<rect width="30" height="30" rx="5" fill="white" fill-opacity="0.9"/>
<path d="M14.5835 16.6666C18.0352 16.6666 20.8335 17.9725 20.8335 19.5833V21.6666H8.3335V19.5833C8.3335 17.9725 11.1318 16.6666 14.5835 16.6666ZM20.0002 19.5833C20.0002 18.4333 17.5752 17.5 14.5835 17.5C11.5918 17.5 9.16683 18.4333 9.16683 19.5833V20.8333H20.0002V19.5833ZM14.5835 9.16663C15.357 9.16663 16.0989 9.47392 16.6459 10.0209C17.1929 10.5679 17.5002 11.3097 17.5002 12.0833C17.5002 12.8568 17.1929 13.5987 16.6459 14.1457C16.0989 14.6927 15.357 15 14.5835 15C13.8099 15 13.0681 14.6927 12.5211 14.1457C11.9741 13.5987 11.6668 12.8568 11.6668 12.0833C11.6668 11.3097 11.9741 10.5679 12.5211 10.0209C13.0681 9.47392 13.8099 9.16663 14.5835 9.16663ZM14.5835 9.99996C14.031 9.99996 13.5011 10.2195 13.1104 10.6102C12.7197 11.0009 12.5002 11.5308 12.5002 12.0833C12.5002 12.6358 12.7197 13.1657 13.1104 13.5564C13.5011 13.9471 14.031 14.1666 14.5835 14.1666C15.136 14.1666 15.6659 13.9471 16.0566 13.5564C16.4473 13.1657 16.6668 12.6358 16.6668 12.0833C16.6668 11.5308 16.4473 11.0009 16.0566 10.6102C15.6659 10.2195 15.136 9.99996 14.5835 9.99996Z" fill="#3D3C3C"/>
</svg>
