<svg width="14" height="14" viewBox="0 0 14 14" fill="none" xmlns="http://www.w3.org/2000/svg">
<path d="M3.86395 10.8096H2.41785C2.01371 10.8096 1.62613 10.649 1.34036 10.3633C1.05459 10.0775 0.894043 9.6899 0.894043 9.28576L0.894043 6.23814C0.894043 5.834 1.05459 5.44642 1.34036 5.16065C1.62613 4.87488 2.01371 4.71433 2.41785 4.71433L11.5714 4.71433C11.9755 4.71433 12.3631 4.87488 12.6489 5.16065C12.9346 5.44642 13.0952 5.834 13.0952 6.23814V9.28576C13.0952 9.6899 12.9346 10.0775 12.6489 10.3633C12.3631 10.649 11.9755 10.8096 11.5714 10.8096H10.0476" stroke="#3D3C3C" stroke-width="0.7" stroke-linecap="round" stroke-linejoin="round"/>
<path d="M3.95239 3.19045L3.95239 1.66664C3.95239 1.46457 4.03266 1.27078 4.17555 1.12789C4.31843 0.98501 4.51223 0.904738 4.7143 0.904738H9.28573C9.4878 0.904738 9.68159 0.98501 9.82447 1.12789C9.96736 1.27078 10.0476 1.46457 10.0476 1.66664V3.19045M3.95239 12.3333L3.95239 8.52302H10.0476V12.3333C10.0476 12.5354 9.96736 12.7292 9.82447 12.8721C9.68159 13.0149 9.4878 13.0952 9.28573 13.0952H4.7143C4.51223 13.0952 4.31843 13.0149 4.17555 12.8721C4.03266 12.7292 3.95239 12.5354 3.95239 12.3333Z" stroke="#3D3C3C" stroke-width="0.7" stroke-linecap="round" stroke-linejoin="round"/>
<path d="M11.9523 6.61895C11.9523 6.19817 11.6112 5.85705 11.1904 5.85705C10.7696 5.85705 10.4285 6.19817 10.4285 6.61895C10.4285 7.03974 10.7696 7.38086 11.1904 7.38086C11.6112 7.38086 11.9523 7.03974 11.9523 6.61895Z" fill="#3D3C3C"/>
</svg>
