<svg width="30" height="30" viewBox="0 0 30 30" fill="none" xmlns="http://www.w3.org/2000/svg">
<rect width="30" height="30" rx="5" fill="white" fill-opacity="0.9"/>
<path d="M19.6168 18.0717C19.3113 18.0729 19.0092 18.1358 18.7286 18.2566C18.448 18.3774 18.1947 18.5537 17.9839 18.7748L12.4546 16.0079C12.5906 15.5954 12.5906 15.1502 12.4546 14.7378L17.993 11.921C18.3897 12.3391 18.9276 12.5947 19.5023 12.6382C20.077 12.6817 20.6473 12.5099 21.1024 12.1564C21.5575 11.8028 21.8649 11.2927 21.9648 10.7251C22.0647 10.1575 21.9501 9.57304 21.6431 9.0853C21.3361 8.59756 20.8587 8.24139 20.3038 8.08601C19.7488 7.93062 19.1559 7.98714 18.6403 8.24456C18.1246 8.50198 17.7231 8.94192 17.5138 9.47887C17.3045 10.0158 17.3023 10.6114 17.5076 11.1499L12.0237 13.9395C11.7275 13.5773 11.3266 13.3155 10.8758 13.1901C10.425 13.0647 9.94651 13.0818 9.50583 13.239C9.06515 13.3963 8.68389 13.686 8.4143 14.0684C8.14471 14.4508 8 14.9072 8 15.3751C8 15.843 8.14471 16.2994 8.4143 16.6819C8.68389 17.0643 9.06515 17.354 9.50583 17.5112C9.94651 17.6684 10.425 17.6855 10.8758 17.5601C11.3266 17.4347 11.7275 17.1729 12.0237 16.8107L17.494 19.564C17.4016 19.8122 17.354 20.0748 17.3534 20.3397C17.3534 20.7882 17.4864 21.2267 17.7356 21.5997C17.9848 21.9727 18.3391 22.2633 18.7535 22.435C19.1679 22.6067 19.6239 22.6516 20.0638 22.5641C20.5038 22.4766 20.9079 22.2606 21.2251 21.9434C21.5422 21.6262 21.7583 21.2221 21.8458 20.7821C21.9333 20.3422 21.8884 19.8862 21.7167 19.4718C21.545 19.0574 21.2544 18.7031 20.8814 18.4539C20.5084 18.2047 20.0699 18.0717 19.6214 18.0717H19.6168Z" fill="#3D3C3C"/>
</svg>
