<svg width="23" height="23" viewBox="0 0 23 23" fill="none" xmlns="http://www.w3.org/2000/svg">
<path d="M11.5 0.25C9.27496 0.25 7.09989 0.909801 5.24984 2.14597C3.39979 3.38213 1.95785 5.13914 1.10636 7.19481C0.254874 9.25048 0.032087 11.5125 0.466171 13.6948C0.900254 15.877 1.97171 17.8816 3.54505 19.4549C5.11839 21.0283 7.12295 22.0997 9.30524 22.5338C11.4875 22.9679 13.7495 22.7451 15.8052 21.8936C17.8609 21.0422 19.6179 19.6002 20.854 17.7502C22.0902 15.9001 22.75 13.725 22.75 11.5C22.75 10.0226 22.459 8.55972 21.8936 7.19481C21.3283 5.8299 20.4996 4.58971 19.455 3.54505C18.4103 2.50039 17.1701 1.67172 15.8052 1.10636C14.4403 0.54099 12.9774 0.25 11.5 0.25ZM15.0775 17.296C15.0355 17.4011 14.9715 17.496 14.8898 17.5743C14.8081 17.6526 14.7106 17.7126 14.6038 17.7501C14.4971 17.7876 14.3835 17.8018 14.2708 17.7918C14.158 17.7818 14.0487 17.7477 13.9503 17.692L10.8959 15.3182L8.93613 17.1272C8.89064 17.1608 8.83744 17.1824 8.78142 17.1901C8.72539 17.1978 8.66834 17.1913 8.6155 17.1711L8.99125 13.8085L9.0025 13.8186L9.01038 13.7522C9.01038 13.7522 14.506 8.74825 14.7299 8.53562C14.9571 8.323 14.8818 8.27687 14.8818 8.27687C14.8953 8.01812 14.4756 8.27687 14.4756 8.27687L7.1935 12.9614L4.16163 11.9286C4.16163 11.9286 3.69588 11.7621 3.652 11.3942C3.60588 11.0297 4.17625 10.8317 4.17625 10.8317L16.2329 6.0415C16.2329 6.0415 17.224 5.6005 17.224 6.33175L15.0775 17.296Z" fill="black"/>
</svg>
