<svg width="40" height="40" viewBox="0 0 40 40" fill="none" xmlns="http://www.w3.org/2000/svg">
<path d="M14.51 28.64L14.52 28.88C14.4533 28.92 14.15 29.04 13.61 29.24C13.3967 30.5133 13.0833 31.4333 12.67 32C12.2567 32.5667 11.75 32.85 11.15 32.85C10.87 32.85 10.6467 32.76 10.48 32.58C10.3133 32.4 10.23 32.1667 10.23 31.88C10.23 31.3067 10.4933 30.77 11.02 30.27C11.5467 29.7767 12.25 29.3867 13.13 29.1C13.23 28.6533 13.41 28.0233 13.67 27.21C13.2233 27.89 12.8167 28.35 12.45 28.59C12.09 28.83 11.7633 28.95 11.47 28.95C11.1767 28.95 10.9533 28.87 10.8 28.71C10.6533 28.55 10.58 28.3367 10.58 28.07C10.58 27.63 10.7633 27.1833 11.13 26.73C11.4967 26.27 11.9567 25.8967 12.51 25.61C13.07 25.3167 13.61 25.17 14.13 25.17L14.21 25.52C13.47 25.6 12.8333 25.86 12.3 26.3C11.7733 26.74 11.51 27.1633 11.51 27.57C11.51 27.7433 11.5633 27.8867 11.67 28C11.7767 28.1133 11.9067 28.17 12.06 28.17C12.2867 28.17 12.63 27.93 13.09 27.45C13.55 26.97 13.8733 26.56 14.06 26.22L14.43 26.43C14.0633 27.41 13.81 28.2367 13.67 28.91L14.51 28.64ZM13.07 29.4C12.49 29.6667 12.01 29.9867 11.63 30.36C11.25 30.7333 11.06 31.0733 11.06 31.38C11.06 31.54 11.1067 31.67 11.2 31.77C11.2933 31.87 11.41 31.92 11.55 31.92C11.83 31.92 12.1067 31.7233 12.38 31.33C12.6533 30.9367 12.8833 30.2933 13.07 29.4ZM18.9175 25.11L19.3075 25.2C19.3008 25.2467 19.2042 25.45 19.0175 25.81C18.8375 26.1633 18.6442 26.63 18.4375 27.21C18.2308 27.7833 18.0975 28.3633 18.0375 28.95L17.3975 28.9C17.3975 28.5333 17.5142 28.06 17.7475 27.48C17.6875 27.4733 17.5642 27.47 17.3775 27.47C17.1975 27.47 16.8642 27.5133 16.3775 27.6C16.0375 28.36 15.8675 29.01 15.8675 29.55L15.1975 29.46C15.1975 28.9867 15.3742 28.4033 15.7275 27.71C15.3875 27.7633 15.0475 27.8433 14.7075 27.95L14.6075 27.56C14.6075 27.54 14.7842 27.4833 15.1375 27.39C15.4975 27.2967 15.7642 27.2367 15.9375 27.21C16.4708 25.9833 16.8342 25.2733 17.0275 25.08L17.4575 25.25C17.4242 25.3167 17.3475 25.4667 17.2275 25.7C16.9275 26.28 16.7242 26.7333 16.6175 27.06C17.1975 27 17.5442 26.97 17.6575 26.97C17.7775 26.97 17.8775 26.9733 17.9575 26.98C18.4242 25.9067 18.7442 25.2833 18.9175 25.11ZM22.5605 27.82L22.7905 28C22.5839 28.2867 22.3005 28.5267 21.9405 28.72C21.5805 28.9067 21.2305 29 20.8905 29C20.5505 29 20.2772 28.9 20.0705 28.7C19.8639 28.5 19.7605 28.2367 19.7605 27.91C19.7605 27.2967 20.0839 26.6933 20.7305 26.1C21.3839 25.5067 22.0439 25.21 22.7105 25.21C23.1505 25.21 23.3705 25.3833 23.3705 25.73C23.3705 26.09 23.1372 26.4533 22.6705 26.82C22.2105 27.1867 21.5605 27.52 20.7205 27.82C20.7805 27.9733 20.8739 28.0933 21.0005 28.18C21.1272 28.2667 21.2572 28.31 21.3905 28.31C21.6772 28.31 22.0672 28.1467 22.5605 27.82ZM20.6705 27.52C21.2105 27.3333 21.6739 27.1 22.0605 26.82C22.4472 26.54 22.6405 26.2833 22.6405 26.05C22.6405 25.9633 22.6072 25.8867 22.5405 25.82C22.4739 25.7533 22.3972 25.72 22.3105 25.72C21.9972 25.72 21.6572 25.9167 21.2905 26.31C20.9305 26.6967 20.7239 27.1 20.6705 27.52ZM27.8442 27.83L28.0542 28C27.9409 28.28 27.7609 28.5167 27.5142 28.71C27.2742 28.9033 27.0542 29 26.8542 29C26.6609 29 26.5076 28.9333 26.3942 28.8C26.2809 28.66 26.2242 28.48 26.2242 28.26C26.2242 28.04 26.2609 27.7567 26.3342 27.41C26.0209 27.9033 25.6842 28.29 25.3242 28.57C24.9642 28.85 24.6609 28.99 24.4142 28.99C24.0409 28.99 23.8542 28.7667 23.8542 28.32C23.8542 27.8733 24.0076 27.2733 24.3142 26.52C24.6276 25.76 24.8509 25.3267 24.9842 25.22L25.4642 25.43C25.1909 25.87 24.9842 26.3033 24.8442 26.73C24.7042 27.1567 24.6342 27.4433 24.6342 27.59C24.6342 27.73 24.6776 27.8433 24.7642 27.93C24.8576 28.0167 24.9642 28.06 25.0842 28.06C25.3509 28.06 25.6809 27.8167 26.0742 27.33C26.4742 26.8367 26.8809 26.1033 27.2942 25.13L27.8042 25.36C27.7909 25.4133 27.6376 25.8 27.3442 26.52C27.0576 27.24 26.9142 27.6733 26.9142 27.82C26.9142 27.96 26.9442 28.0667 27.0042 28.14C27.0709 28.2133 27.1342 28.25 27.1942 28.25C27.2609 28.25 27.3109 28.2467 27.3442 28.24C27.3776 28.2333 27.4109 28.22 27.4442 28.2C27.4776 28.18 27.5042 28.1633 27.5242 28.15C27.5509 28.1367 27.5809 28.1133 27.6142 28.08L27.6942 28C27.7076 27.9867 27.7309 27.96 27.7642 27.92C27.8042 27.8733 27.8309 27.8433 27.8442 27.83ZM27.2642 24.02L27.5642 24.18C27.4309 24.3867 27.2576 24.57 27.0442 24.73C26.8376 24.89 26.6309 24.97 26.4242 24.97C26.2176 24.97 26.0009 24.8933 25.7742 24.74C25.5476 24.58 25.3642 24.42 25.2242 24.26L25.5442 23.99C25.8909 24.33 26.1742 24.5 26.3942 24.5C26.7342 24.5 27.0242 24.34 27.2642 24.02Z" fill="black"/>
<path d="M9.39636 6.36364C12.4255 4.00104 16.1585 2.72086 20 2.72727C23.4162 2.72727 26.7557 3.7403 29.5962 5.63825C32.4367 7.5362 34.6506 10.2338 35.9579 13.39C37.2653 16.5462 37.6073 20.0192 36.9408 23.3697C36.2744 26.7203 34.6293 29.798 32.2137 32.2137C29.798 34.6293 26.7203 36.2744 23.3697 36.9408C20.0192 37.6073 16.5462 37.2653 13.39 35.9579C10.2338 34.6506 7.5362 32.4367 5.63825 29.5962C3.7403 26.7557 2.72727 23.4162 2.72727 20C2.72727 19.1782 2.78182 18.8018 2.90909 17.9291L2.91091 17.9255C2.95962 17.5694 2.86584 17.2086 2.64996 16.9214C2.43409 16.6341 2.11356 16.4437 1.75805 16.3915C1.40254 16.3392 1.04079 16.4294 0.751423 16.6425C0.462056 16.8555 0.268464 17.1741 0.212727 17.5291L0.209091 17.5509C0.0781818 18.4418 0 18.9782 0 20C0 31.0455 8.95455 40 20 40C31.0455 40 40 31.0455 40 20C40 8.95455 31.0455 0 20 0C15.1636 0 10.7291 1.71636 7.27273 4.57091V1.36364C7.27273 1.00198 7.12906 0.655131 6.87333 0.3994C6.6176 0.143668 6.27075 0 5.90909 0C5.54743 0 5.20059 0.143668 4.94485 0.3994C4.68912 0.655131 4.54545 1.00198 4.54545 1.36364V7.72727C4.54545 8.48 5.15636 9.09091 5.90909 9.09091H12.2727C12.6344 9.09091 12.9812 8.94724 13.237 8.69151C13.4927 8.43578 13.6364 8.08893 13.6364 7.72727C13.6364 7.36561 13.4927 7.01877 13.237 6.76304C12.9812 6.5073 12.6344 6.36364 12.2727 6.36364H9.39636Z" fill="#FACA5B"/>
<path d="M24.928 11.336C25.216 11.56 25.36 11.832 25.36 12.152C25.36 12.472 25.096 12.832 24.568 13.232C24.04 13.632 23.512 14.064 22.984 14.528C22.472 14.976 21.904 15.536 21.28 16.208C20.672 16.88 20.136 17.544 19.672 18.2C18.584 19.768 17.992 21.296 17.896 22.784L16.144 22.952C16.176 21.72 16.688 20.136 17.68 18.2C18.16 17.224 18.84 16.24 19.72 15.248C20.6 14.256 21.6 13.408 22.72 12.704C21.12 12.72 19.088 13.048 16.624 13.688L16.336 12.152C16.704 11.992 17.76 11.776 19.504 11.504C21.264 11.232 22.56 11.096 23.392 11.096C24.24 11.096 24.752 11.176 24.928 11.336Z" fill="#242424"/>
</svg>
